<svg width="65" height="65" viewBox="0 0 65 65" fill="none" xmlns="http://www.w3.org/2000/svg">
<path d="M0 10C0 4.47715 4.47715 0 10 0H55C60.5228 0 65 4.47715 65 10V55C65 60.5228 60.5228 65 55 65H10C4.47715 65 0 60.5228 0 55V10Z" fill="#CBE2F7"/>
<path d="M23.7998 20.5847C23.6607 20.1658 23.5903 19.7246 23.5903 19.2754C23.5903 18.2228 23.9754 17.2326 24.675 16.4866C25.3711 15.7451 26.2945 15.336 27.2749 15.3342C28.7126 15.3342 30.0299 16.2424 30.6306 17.6488C30.7456 17.918 31.0014 18.0927 31.2822 18.0927C31.562 18.0927 31.8169 17.918 31.9319 17.6479C32.5326 16.2424 33.8491 15.3342 35.2876 15.3342C36.268 15.336 37.1923 15.7451 37.8875 16.4866C38.5871 17.2335 38.9722 18.2237 38.9722 19.2754C38.9722 19.7362 38.8982 20.1863 38.7529 20.6123C38.5702 21.1507 38.2725 21.6516 37.8848 22.0669L31.2911 29.051L24.9353 22.3174L24.8987 22.2835C24.7526 22.1498 24.6126 22.0027 24.4852 21.845C24.1822 21.468 23.9522 21.0446 23.7998 20.5847ZM30.7527 30.3736L30.7545 30.3745C30.9025 30.5296 31.1003 30.6098 31.292 30.6089C31.4827 30.6107 31.6832 30.5287 31.8294 30.3745L31.8303 30.3736L38.7877 23.0028C38.7922 22.9983 38.7939 22.9921 38.7975 22.9894C39.2993 22.4493 39.695 21.796 39.9437 21.0651C40.1327 20.5045 40.236 19.902 40.236 19.2754C40.2352 16.3645 38.0185 13.9999 35.2876 13.999C33.6352 13.999 32.1806 14.8734 31.2822 16.2023C30.3828 14.8734 28.9274 13.999 27.2749 13.999C24.5458 13.9999 22.3274 16.3645 22.3265 19.2754C22.3265 19.8877 22.4254 20.4786 22.6064 21.0259C22.814 21.6525 23.1286 22.222 23.5253 22.714L23.5262 22.7149C23.6857 22.9119 23.8604 23.0954 24.0467 23.2666L24.0449 23.2675L30.7527 30.3736Z" fill="#213170"/>
<path d="M51.3637 45.3019C50.6025 45.3928 49.6257 45.5987 48.4474 45.9143C48.418 45.9232 48.3877 45.933 48.3591 45.9437L48.0962 46.047C43.8974 47.1522 35.1378 49.5239 30.2767 50.8439L30.2383 50.8546C29.8943 50.9233 29.5752 50.8956 29.2446 50.7735L29.1786 50.7468L15.6301 40.2724C15.5963 40.2466 15.5606 40.2225 15.5232 40.202C15.3895 40.129 15.2611 40.03 15.1399 39.907C15.1337 39.8999 15.1274 39.8928 15.1212 39.8856C14.8039 39.5523 14.6292 39.1093 14.6292 38.6396C14.6292 37.7287 15.2585 36.9836 16.0909 36.9061C16.123 36.9025 16.156 36.8971 16.1872 36.8909C16.344 36.857 16.5116 36.8597 16.6426 36.8793C16.7068 36.8909 16.7692 36.9043 16.8155 36.9185C16.8806 36.9399 16.951 36.972 17.0295 37.0139C17.0785 37.0406 17.1284 37.0674 17.1747 37.1004C17.1801 37.1048 17.1863 37.1084 17.1926 37.112L18.6587 38.243C18.6703 38.251 18.681 38.259 18.6926 38.267L27.0288 44.0301C27.1072 44.0835 27.1937 44.1237 27.2855 44.1486C27.5948 44.2297 27.9451 44.2574 28.3551 44.2342C28.4068 44.2315 28.4576 44.2244 28.5075 44.2119C28.8889 44.1165 30.6733 43.6192 33.8115 42.7333L33.963 42.6905C34.6449 42.4819 35.2795 42.3019 35.9239 42.1379L37.9836 41.555C38.0505 41.5354 38.1147 41.5087 38.1744 41.473C39.1405 40.9035 39.7395 39.8348 39.7395 38.6833C39.7395 37.1084 38.6637 35.7777 37.1815 35.5184C37.1351 35.5103 37.0879 35.5059 37.0416 35.5059H31.7482C31.3747 35.5059 31.0708 35.1574 31.0708 34.7287C31.0708 34.3008 31.3747 33.9515 31.7482 33.9515H37.4114C38.1343 33.9292 39.0282 33.9176 40.1459 33.9176C42.3412 33.9176 43.8688 34.8285 45.1906 35.8116C45.5373 36.0691 45.8733 36.3356 46.2067 36.5995C47.6933 37.7768 49.2273 38.9908 51.3592 39.2448V44.4891L51.3681 45.2681C51.3663 45.2788 51.3655 45.2903 51.3637 45.3019ZM52.8432 37.9988C52.6899 37.7884 52.4457 37.6636 52.1845 37.6636C50.1756 37.6636 48.8048 36.579 47.2174 35.3214C46.8716 35.0486 46.5231 34.7724 46.1639 34.5041C44.6906 33.4087 42.8225 32.2883 40.1459 32.2883C38.9953 32.2883 38.1102 32.299 37.3865 32.3222H31.7482C30.4763 32.3222 29.4407 33.4024 29.4407 34.7287C29.4407 36.0567 30.4763 37.136 31.7482 37.136H36.9622C37.6307 37.2849 38.1102 37.9248 38.1102 38.6833C38.1102 39.227 37.85 39.7305 37.4257 40.0193L35.5005 40.5639C34.8517 40.7297 34.1921 40.9159 33.5022 41.1272L33.3686 41.1655C29.7874 42.1762 28.5574 42.5149 28.1893 42.6111C28.0467 42.6156 27.9237 42.6103 27.8194 42.596L19.6365 36.939L18.1436 35.7884C18.1159 35.767 18.0874 35.7474 18.058 35.7305C17.9778 35.6779 17.894 35.6289 17.8067 35.5807C17.64 35.4916 17.4831 35.4239 17.3147 35.3668C17.189 35.3285 17.0526 35.2964 16.902 35.2715C16.5072 35.2091 16.2157 35.2242 15.8931 35.2875C14.2397 35.4667 12.9999 36.8989 12.9999 38.6396C12.9999 39.5211 13.327 40.3544 13.9224 40.9899C13.9349 41.0042 13.9483 41.0193 13.9625 41.0345C14.1827 41.26 14.4224 41.4489 14.6782 41.5969L28.2748 52.1069C28.3488 52.1648 28.4308 52.2076 28.5164 52.2361L28.6519 52.2914C29.0708 52.4464 29.4692 52.5222 29.8676 52.5222C30.1047 52.5222 30.3498 52.4964 30.5949 52.4447C30.6118 52.4411 30.6278 52.4384 30.6448 52.4331L30.7072 52.4161C35.5807 51.0935 44.3813 48.7093 48.557 47.6103C48.5864 47.6032 48.6158 47.5934 48.6443 47.5818L48.9126 47.4767C50.3628 47.0898 51.5197 46.8759 52.1739 46.8759C52.624 46.8759 52.9885 46.5114 52.9885 46.0613V45.5301C52.9965 45.482 53.0001 45.433 52.9992 45.383L52.9885 38.6147C53.025 38.3999 52.9734 38.1779 52.8432 37.9988Z" fill="#213170"/>
</svg>
