<svg width="65" height="65" viewBox="0 0 65 65" fill="none" xmlns="http://www.w3.org/2000/svg">
<path d="M0 10C0 4.47715 4.47715 0 10 0H55C60.5228 0 65 4.47715 65 10V55C65 60.5228 60.5228 65 55 65H10C4.47715 65 0 60.5228 0 55V10Z" fill="#CBE2F7"/>
<path d="M28.3667 48.1422V44.8378H36.8638V48.1422H28.3667ZM43.4388 51.2336H21.7909V49.9086H43.4388V51.2336ZM15.7664 19.2686C15.7664 16.7864 17.7856 14.7681 20.2669 14.7681H44.9629C47.445 14.7681 49.4642 16.7864 49.4642 19.2686V38.5701C49.4642 41.0522 47.445 43.0705 44.9629 43.0705H20.2669C17.7856 43.0705 15.7664 41.0522 15.7664 38.5701V19.2686ZM20.2669 44.8378H26.5994V48.1422H20.9082C20.42 48.1422 20.0245 48.5368 20.0245 49.0249V52.1164C20.0245 52.6054 20.42 53.0009 20.9082 53.0009H44.3224C44.8105 53.0009 45.2061 52.6054 45.2061 52.1164V49.0249C45.2061 48.5368 44.8105 48.1422 44.3224 48.1422H38.6311V44.8378H44.9629C48.4195 44.8378 51.2306 42.0268 51.2306 38.5701V19.2686C51.2306 15.8128 48.4195 13.0009 44.9629 13.0009H20.2669C16.8111 13.0009 14 15.8128 14 19.2686V38.5701C14 42.0268 16.8111 44.8378 20.2669 44.8378Z" fill="#213170"/>
<path d="M44.8529 29.9318H39.552C39.3962 29.9318 39.256 29.8272 39.2127 29.6774L38.1785 26.1619L35.6176 33.6291C35.5691 33.7728 35.4341 33.868 35.2835 33.868V34.0454L35.2714 33.868C35.1156 33.8628 34.9832 33.7581 34.9425 33.6075L32.2898 23.8061L28.7224 29.7588C28.6592 29.8652 28.5432 29.9318 28.4195 29.9318H20.4676C20.2729 29.9318 20.1145 29.7726 20.1145 29.577C20.1145 29.3832 20.2729 29.2248 20.4676 29.2248H28.2187L32.1107 22.7303C32.1834 22.6092 32.3219 22.5425 32.4612 22.5625C32.6023 22.5815 32.7174 22.6836 32.7546 22.8203L35.3233 32.3093L37.8695 24.8836C37.9188 24.7408 38.0642 24.6413 38.2122 24.6448C38.3671 24.6482 38.4995 24.7503 38.5437 24.8983L39.8159 29.2248H44.8529C45.0476 29.2248 45.206 29.3832 45.206 29.577C45.206 29.7726 45.0476 29.9318 44.8529 29.9318ZM38.9392 37.9634H26.2913C23.81 37.9634 21.7909 35.9451 21.7909 33.4629V30.285H28.4195C28.6661 30.285 28.8989 30.1525 29.0262 29.9405L32.1652 24.7019L34.6006 33.6992C34.6828 34.0013 34.9477 34.2116 35.261 34.222H35.2835C35.5855 34.222 35.8538 34.0298 35.9516 33.7442L38.1525 27.3268L38.8734 29.7778C38.9617 30.0764 39.2404 30.285 39.552 30.285H43.4387V33.4629C43.4387 35.9451 41.4205 37.9634 38.9392 37.9634ZM26.2913 19.8769H38.9392C41.4205 19.8769 43.4387 21.8952 43.4387 24.3773V28.8708H40.0807L38.8821 24.798C38.7947 24.502 38.529 24.2986 38.2217 24.2916C37.9197 24.2743 37.6358 24.4777 37.5354 24.7685L35.3631 31.1037L33.0956 22.7277C33.0212 22.4534 32.7918 22.2518 32.5114 22.2128C32.2301 22.1704 31.954 22.3045 31.8069 22.5486L28.0188 28.8708H21.7909V24.3773C21.7909 21.8952 23.81 19.8769 26.2913 19.8769ZM20.0245 30.1231V33.4629C20.0245 36.9187 22.8355 39.7306 26.2913 39.7306H38.9392C42.395 39.7306 45.206 36.9187 45.206 33.4629V30.1863C45.4172 30.0634 45.56 29.8384 45.56 29.577C45.56 29.3174 45.4172 29.0915 45.206 28.9694V24.3773C45.206 20.9207 42.395 18.1096 38.9392 18.1096H26.2913C22.8355 18.1096 20.0245 20.9207 20.0245 24.3773V29.0318C19.8652 29.1616 19.7605 29.3572 19.7605 29.577C19.7605 29.7986 19.8652 29.9942 20.0245 30.1231Z" fill="#213170"/>
</svg>
