<svg width="65" height="65" viewBox="0 0 65 65" fill="none" xmlns="http://www.w3.org/2000/svg">
<rect width="65" height="65" rx="13" fill="#CBE2F7"/>
<path d="M38.2712 51.1918L37.9605 50.7337L36.6682 48.825C36.2048 48.7449 35.7553 48.639 35.3224 48.511C34.7928 48.3533 34.2848 48.1588 33.7972 47.9322C31.606 46.9101 29.8401 45.2292 28.3606 43.1603C26.3566 40.3563 24.4837 37.4649 22.5535 34.6129C20.5279 31.618 18.4895 28.633 16.488 25.6245C16.1443 25.1073 15.5777 24.3525 15.6974 23.4523C15.7839 22.8008 16.1379 22.4117 16.651 22.0693C17.1106 21.759 18.0885 21.828 18.6487 22.0964C19.2573 22.3871 19.7207 23.0557 20.1256 23.6382C21.0779 25.0088 22.001 26.3966 22.9393 27.7746C23.3939 28.447 23.8535 29.1169 24.3207 29.7819C24.8173 30.49 25.762 32.4566 26.8926 31.6882C27.9303 30.9826 26.5654 29.3977 26.1312 28.7598C25.6729 28.0887 25.2171 27.4138 24.7702 26.7353C22.6898 23.5828 20.5635 20.4537 18.5697 17.2495C17.667 15.8001 17.9611 14.8666 19.1503 14.2386C20.2758 13.645 21.2014 13.9886 22.1385 15.3715C24.5729 18.9612 27.0008 22.5558 29.4339 26.1467C29.7764 26.6503 29.9789 27.0678 30.6218 27.2771C31.0967 27.4311 31.5652 27.3449 31.7448 26.8769C32.0465 26.0851 31.8021 25.6652 31.373 25.0297C28.5134 20.8022 25.6474 16.5808 22.7955 12.3495C21.8609 10.9605 22.1639 9.68099 23.5301 9.08251C24.5525 8.6318 25.5163 9.00862 26.3579 10.2438C29.2748 14.5354 32.1815 18.8319 35.0793 23.1345C35.5517 23.8377 36.1233 24.4276 36.9662 23.8537C37.7721 23.3082 37.3163 22.6038 36.8898 21.9758C34.6413 18.6693 32.4017 15.3592 30.1698 12.0429C29.8719 11.6033 29.5727 11.1415 29.4148 10.644C29.0596 9.51968 29.8554 8.35842 31.0509 8.154C32.2757 7.94465 32.8716 8.6515 33.4369 9.49135C37.2412 15.1314 41.0429 20.7726 44.9007 26.3819C45.256 26.8991 46.002 27.5025 46.5508 27.4877C47.5732 27.4619 47.4637 26.4373 47.5273 25.7083C47.6878 23.9067 47.7654 22.1001 47.9577 20.3035C48.1054 18.9168 49.0004 18.1127 50.2011 18.1287C51.282 18.1435 52.2013 18.9883 52.2891 20.3281C52.6125 25.228 52.9588 30.1316 53.1039 35.0402C53.1294 35.9059 53.0645 36.7494 52.9181 37.5683C52.8429 37.987 52.7411 38.3971 52.6201 38.8022C52.5081 39.1704 52.3744 39.5337 52.2229 39.8896L53.2224 41.3661L53.6069 41.9363L56.3939 46.0555L41.2734 55.6275L38.2712 51.1918ZM30.059 48.3558C29.6312 48.5023 29.1882 48.623 28.7273 48.7215L27.5126 50.6771L27.2224 51.145L24.4022 55.6928L8.90485 46.697L11.5226 42.4769L11.8867 41.8932L12.825 40.3797C12.6583 40.0312 12.5118 39.6729 12.3845 39.3071C12.2457 38.9081 12.1286 38.5018 12.0369 38.0855C11.8561 37.274 11.7568 36.4329 11.7479 35.5672C11.6957 30.6587 11.8434 25.744 11.9682 20.8354C12.0026 19.4932 12.8862 18.6139 13.9671 18.5585C14.9258 18.5092 15.7025 18.9993 16.0819 19.8995C15.8056 20.0424 15.5369 20.2382 15.2161 20.5879C13.6424 22.3033 13.4706 24.8401 14.7348 26.7809C18.4169 32.4406 22.1665 38.0609 25.9924 43.632C26.7373 44.7181 27.57 45.7488 28.5134 46.6773C29.1067 47.2611 29.7089 47.7856 30.3226 48.2561C30.2335 48.2881 30.1494 48.325 30.059 48.3558ZM37.4729 9.78074C38.2636 8.51481 39.2121 8.10105 40.251 8.51112C41.6413 9.06034 41.9953 10.325 41.1168 11.7498C40.5706 12.634 40.0206 13.5169 39.4718 14.3999C38.6264 13.1512 37.7785 11.9038 36.9305 10.6551C37.1126 10.3644 37.2921 10.0714 37.4729 9.78074ZM45.5704 21.3834C45.5335 21.8551 45.4953 22.3711 45.447 22.972C45.4431 23.0102 45.3909 23.0237 45.368 22.9929C45.1108 22.6518 44.9173 22.4043 44.7492 22.1777C44.9886 21.8575 45.2572 21.5718 45.5704 21.3834ZM41.8972 14.7435C42.777 13.3273 43.6861 12.948 44.8371 13.5009C46.0492 14.0797 46.3815 15.0021 45.5386 16.4847C44.8345 17.7236 44.1088 18.9476 43.3767 20.1692C42.5339 18.923 41.691 17.678 40.8469 16.4318C41.197 15.869 41.5458 15.3062 41.8972 14.7435ZM54.5236 39.9389C55.532 37.2124 55.5179 34.3309 55.3664 31.4838C55.1627 27.6687 54.8317 23.8586 54.4727 20.0535C54.2435 17.6251 52.419 15.9725 50.1667 15.9725C49.348 15.9725 48.5765 16.2015 47.9118 16.603C48.7012 13.9159 47.6534 12.2313 43.8987 10.9334C43.8809 10.9272 43.8707 10.91 43.8707 10.8927C43.9459 8.94705 43.4582 7.75501 41.6706 6.76493C39.85 5.75514 38.0777 5.63323 36.462 7.64295C36.4505 7.65772 36.0227 8.17739 36.0189 8.15892C35.7744 7.06417 34.8374 6.37703 34.0798 6.05685C32.8041 5.51501 31.634 5.51748 30.5925 6.04207C30.2679 6.12088 29.9368 6.2354 29.5994 6.39549C28.8546 6.74399 27.9455 7.46686 27.7457 8.57023C27.7431 8.58871 27.2937 8.08504 27.281 8.06903C25.5851 6.12334 23.8204 6.31422 22.0417 7.39051C20.2949 8.44709 19.8569 9.65637 20.0097 11.5984C20.011 11.6156 20.0008 11.6316 19.983 11.639C16.5683 12.969 15.4695 14.539 16.0297 16.864C15.388 16.5426 14.6673 16.3751 13.9136 16.4035C11.6639 16.4872 9.90685 18.2075 9.77571 20.6446C9.57073 24.4596 9.39376 28.2795 9.34411 32.0995C9.30591 34.9515 9.40903 37.8282 10.5282 40.5152L6.65002 46.7672L25.3992 57.6495L29.6644 50.7756C30.6282 50.5244 31.5704 50.15 32.4883 49.6562C33.5718 50.2387 34.6821 50.6648 35.8152 50.9123L40.3542 57.62L58.65 46.037L54.5236 39.9389Z" fill="#213170"/>
<path d="M45.4278 34.7253C45.2661 35.1859 45.0038 35.6095 44.6537 35.9728L38.4239 42.3578L32.4029 36.1895L32.3584 36.1489C32.2272 36.0319 32.105 35.9063 31.9968 35.777C31.7867 35.527 31.6072 35.2142 31.4659 34.8608C31.4404 34.7955 31.4124 34.7339 31.3818 34.6724C31.2647 34.3189 31.2049 33.9483 31.2049 33.5715C31.2049 33.1799 31.2724 32.7895 31.4073 32.4077C31.8695 31.1036 33.0561 30.2281 34.3624 30.2281C35.5847 30.2281 36.7102 30.9903 37.2296 32.1676C37.4321 32.6282 37.8968 32.9249 38.4137 32.9249C38.9306 32.9249 39.3953 32.6282 39.5978 32.1676C40.1172 30.9903 41.2415 30.2281 42.4638 30.2281C44.2055 30.2281 45.6213 31.728 45.6213 33.5715C45.6213 33.968 45.5564 34.3559 45.4278 34.7253ZM42.4638 28.6407C40.8124 28.6407 39.2871 29.5188 38.4137 30.9263C37.539 29.5188 36.0137 28.6407 34.3624 28.6407C32.3545 28.6407 30.5428 29.9485 29.854 31.893C29.6605 32.441 29.5624 33.0038 29.5624 33.5715C29.5624 34.1268 29.6528 34.6748 29.8298 35.1908C29.8489 35.2499 29.8705 35.3004 29.8947 35.346L30.6383 35.0098L29.8973 35.3509C29.9075 35.3718 29.9177 35.3903 29.9304 35.4235C30.1379 35.9408 30.4028 36.3952 30.7172 36.7757C30.8726 36.9592 31.0432 37.1353 31.2278 37.3003L38.4239 44.6717L45.8696 37.0417C46.3623 36.5319 46.7468 35.9063 46.9824 35.2364C47.1695 34.7019 47.265 34.1416 47.265 33.5715C47.265 30.8524 45.1107 28.6407 42.4638 28.6407Z" fill="#213170"/>
</svg>
