<svg width="65" height="65" viewBox="0 0 65 65" fill="none" xmlns="http://www.w3.org/2000/svg">
<path d="M0 10C0 4.47715 4.47715 0 10 0H55C60.5228 0 65 4.47715 65 10V55C65 60.5228 60.5228 65 55 65H10C4.47715 65 0 60.5228 0 55V10Z" fill="#CBE2F7"/>
<path d="M25.7967 35.8306H22.3173V37.0362H25.7967V35.8306Z" fill="#213170"/>
<path d="M47.9304 45.0222V45.0207C47.7652 45.4598 47.5023 45.854 47.1653 46.1808C47.1624 46.1822 47.161 46.1866 47.1588 46.1896L41.357 51.7542L35.763 46.3908L35.7306 46.3621C35.6007 46.2542 35.4781 46.1367 35.3635 46.0097C35.1014 45.7145 34.8914 45.3709 34.7571 44.9987L34.7556 44.9979C34.6367 44.6698 34.5699 44.3166 34.5699 43.9487C34.5699 43.075 34.9355 42.2887 35.5302 41.7138C36.1264 41.1389 36.9421 40.785 37.8474 40.785C38.8797 40.785 39.7953 41.2527 40.401 41.981L40.3995 41.9803C40.5743 42.1918 40.7211 42.4128 40.8313 42.6462C40.9231 42.8415 41.1257 42.9671 41.3467 42.9671C41.5699 42.9671 41.7703 42.8415 41.8635 42.6462C41.9891 42.3797 42.1543 42.1316 42.3504 41.9069C42.9531 41.2211 43.8474 40.785 44.8489 40.785C45.752 40.785 46.5684 41.1389 47.1631 41.7138C47.7579 42.2879 48.1243 43.075 48.1243 43.9487C48.1243 44.3254 48.0552 44.6852 47.9304 45.0222ZM22.3172 37.0368V35.8312H25.7967V37.0368H22.3172ZM19.5382 34.0647L17.9369 32.0779L17.6843 31.7659L17.5529 31.6014V31.213L17.6843 31.2101L17.9369 31.2042L19.7636 31.1616C19.8833 31.1601 19.9927 31.1124 20.0734 31.0361C20.1535 30.9597 20.2056 30.8569 20.2071 30.7438C20.2137 30.5184 20.0228 30.34 19.7834 30.3459L19.6036 30.3496L17.9369 30.3885L17.5529 30.3966V29.3914H17.5543L17.6843 29.3885L17.9369 29.3833L18.9215 29.3598C19.0426 29.3569 19.1513 29.3099 19.2328 29.2336C19.3128 29.1579 19.3635 29.0551 19.3664 28.9428C19.3723 28.7174 19.1814 28.539 18.9413 28.5441L18.757 28.5485L17.9369 28.5676L17.5734 28.5757L17.5529 28.5779V27.5772L17.5918 27.5808L17.6843 27.5779L17.9369 27.5713L18.9596 27.5485C19.0793 27.5463 19.1895 27.4971 19.2688 27.4215C19.3503 27.3459 19.4002 27.2438 19.4038 27.13C19.4083 26.9053 19.2188 26.7262 18.9787 26.7313L18.7937 26.7357L17.9369 26.7548L17.6109 26.7629L17.5529 26.7703V25.771L17.6417 25.7776L17.6843 25.7761L17.9369 25.771L19.8914 25.7262C19.9237 25.7262 19.9523 25.7137 19.9831 25.7071H30.5823V31.6014L28.597 34.0647H19.5382ZM18.9413 23.108L18.7548 23.1124L17.9369 23.1307L17.5734 23.1395L17.5529 23.141V22.1403L17.5918 22.1439L17.7159 22.1417L17.9677 22.1359L18.9596 22.1131C19.0793 22.1102 19.1895 22.0617 19.2688 21.9868C19.3503 21.9097 19.4002 21.8069 19.4038 21.6939C19.4083 21.4692 19.2188 21.2915 18.9787 21.2952L18.7952 21.3003L18.6645 21.304L17.6109 21.3268L17.5529 21.3334V20.3348L17.6417 20.3422L19.8914 20.29C20.011 20.2886 20.1212 20.2394 20.2005 20.1638C20.282 20.0881 20.3326 19.9853 20.3348 19.873C20.3407 19.6476 20.1506 19.4677 19.9112 19.4743L17.6615 19.5257L17.5529 19.5419V18.5162L17.5918 18.5191L18.9596 18.489C19.0793 18.4853 19.1895 18.4369 19.2688 18.3613C19.3503 18.2864 19.4002 18.1836 19.4038 18.0705C19.4083 17.8451 19.2188 17.666 18.9787 17.6718L17.6109 17.7034L17.5529 17.71V15.9596H30.5823V24.5228H17.5529V23.9553H17.5543L17.6843 23.9531L17.9369 23.9465L18.9215 23.9237C19.0426 23.9222 19.1513 23.8738 19.2328 23.7981C19.3128 23.7225 19.3635 23.6197 19.3664 23.5067C19.3723 23.2805 19.1814 23.1028 18.9413 23.108ZM44.8489 39.6903C43.7226 39.6903 42.6962 40.1051 41.9179 40.7791V37.8496C41.9282 37.6242 41.9825 35.6954 40.6301 34.3063C39.7387 33.3907 38.4612 32.9252 36.832 32.9252C35.224 32.9252 33.9487 33.3885 33.0405 34.3004C31.572 35.7725 31.6374 37.8709 31.6403 37.9384V42.0699L31.6411 42.1029C31.6425 42.1176 31.7233 43.5567 30.7864 44.5192C30.199 45.1228 29.3165 45.4297 28.1616 45.4297C27.0111 45.4297 26.1285 45.1213 25.5353 44.5178C24.5815 43.5471 24.6528 42.0875 24.6535 42.0743V37.9311H25.8341C26.3495 37.9311 26.7666 37.528 26.7666 37.0309V35.9002H28.7174C29.3246 35.9002 29.898 35.658 30.2798 35.2402L31.6888 33.6976C31.9773 33.3797 32.1337 32.9869 32.1337 32.5794V15.6123C32.1337 14.6314 31.2358 13.8355 30.1271 13.8355H27.6315C27.5764 13.3737 27.1741 13.0154 26.6814 13.0154H23.9707V13H22.898V13.0154H20.4736C19.9817 13.0154 19.5801 13.3737 19.525 13.8355H18.0081C16.8987 13.8355 16 14.6314 16 15.6123V32.5794C16 32.9869 16.1579 33.3797 16.4464 33.6976L17.8546 35.2402C18.2364 35.658 18.8099 35.9002 19.4178 35.9002H21.3686V37.0309C21.3686 37.528 21.7857 37.9311 22.3003 37.9311H23.5808V42.0295C23.5705 42.2402 23.5302 43.973 24.746 45.2233C25.55 46.0479 26.6998 46.4664 28.1616 46.4664C29.6293 46.4664 30.7805 46.0479 31.5779 45.2204C32.7769 43.9825 32.7269 42.2733 32.7159 42.0552L32.7137 37.9208C32.7137 37.9025 32.6697 36.1631 33.8202 35.0133C34.5185 34.3165 35.5317 33.9634 36.832 33.9634C38.1477 33.9634 39.1602 34.3158 39.8401 35.0104C40.9296 36.1235 40.8445 37.7879 40.8445 37.8033L40.8437 40.8437C40.0589 40.1352 39.0082 39.6903 37.8474 39.6903C35.4135 39.691 33.4362 41.5993 33.4355 43.9487C33.4355 44.4429 33.5243 44.9209 33.6873 45.3621C33.8709 45.8673 34.1514 46.3269 34.5045 46.7241C34.644 46.8827 34.7997 47.0288 34.9656 47.1646L34.9634 47.1668L40.8261 52.7887C40.8805 52.8409 40.9407 52.8798 41.0112 52.9077L41.1418 52.9598C41.2799 53.0134 41.4333 53.0134 41.5714 52.9598L41.702 52.9077C41.7718 52.8798 41.8342 52.8409 41.8878 52.7887L47.9671 46.9576C47.9701 46.9539 47.9715 46.951 47.9737 46.948C48.4216 46.5126 48.7747 45.9847 48.9972 45.3937C49.1653 44.9421 49.2586 44.4561 49.2571 43.9487H49.2586C49.2571 41.5993 47.2814 39.691 44.8489 39.6903Z" fill="#213170"/>
</svg>
