<svg width="65" height="65" viewBox="0 0 65 65" fill="none" xmlns="http://www.w3.org/2000/svg">
<path d="M0 10C0 4.47715 4.47715 0 10 0H55C60.5228 0 65 4.47715 65 10V55C65 60.5228 60.5228 65 55 65H10C4.47715 65 0 60.5228 0 55V10Z" fill="#CBE2F7"/>
<path d="M19.0537 22.8944C20.1814 21.7658 21.6781 21.1448 23.2672 21.1448C26.5518 21.1448 29.2263 23.8174 29.2283 27.1029C29.2283 28.6921 28.6074 30.1887 27.4788 31.3154C26.354 32.444 24.8574 33.065 23.2692 33.065H23.2672C19.9816 33.065 17.3081 30.3924 17.3071 27.1078C17.3071 25.5187 17.927 24.0211 19.0537 22.8944ZM23.2672 35.2091H23.2692C25.431 35.2091 27.465 34.3648 28.9961 32.8318C30.5292 31.2997 31.3734 29.2638 31.3725 27.102C31.3695 22.6346 27.7336 19.0007 23.2672 19.0007C21.1044 19.0007 19.0695 19.845 17.5374 21.378C16.0053 22.9101 15.161 24.946 15.162 27.1088C15.164 31.5752 18.8008 35.2091 23.2672 35.2091Z" fill="#213170"/>
<path d="M38.5182 22.8944C39.6449 21.7658 41.1406 21.1448 42.7307 21.1448C46.0153 21.1448 48.6899 23.8174 48.6908 27.1029C48.6908 28.6921 48.0709 30.1887 46.9423 31.3154C45.8166 32.444 44.3219 33.065 42.7327 33.065H42.7307C39.4442 33.065 36.7716 30.3924 36.7696 27.1078C36.7696 25.5187 37.3905 24.0211 38.5182 22.8944ZM42.7307 35.2091H42.7327C44.8955 35.2091 46.9295 34.3648 48.4596 32.8318C49.9927 31.2997 50.836 29.2638 50.836 27.102C50.833 22.6346 47.1971 19.0007 42.7307 19.0007C40.5659 19.0007 38.533 19.845 37.0009 21.378C35.4688 22.9101 34.6255 24.946 34.6255 27.1088C34.6275 31.5752 38.2633 35.2091 42.7307 35.2091Z" fill="#213170"/>
<path d="M35.1826 45.4723C36.9242 44.0189 39.707 41.4231 40.6743 38.9828C43.5653 39.6401 46.3097 38.7034 48.013 37.679C50.1935 40.1489 50.7033 43.7237 50.8203 45.4683L35.1826 45.4723ZM27.3184 37.372C27.3184 36.0781 28.082 35.6038 28.7206 35.4326C28.9322 35.3755 29.1595 35.347 29.3956 35.347C30.4721 35.347 31.4492 35.9265 32.0072 36.8968C32.3191 37.4389 32.9075 37.7774 33.5511 37.7804C34.1867 37.7745 34.7722 37.4242 35.0782 36.8692C35.7897 35.5782 37.249 35.1846 38.3196 35.4601C38.9729 35.6284 39.7523 36.0968 39.7523 37.372C39.7523 39.4374 36.691 42.7181 33.5383 45.1712C31.0615 43.2268 27.3184 39.6824 27.3184 37.372ZM15.1955 45.4723C15.5231 41.3808 17.3022 38.8037 18.2469 37.7026C21.0552 39.5663 24.0082 39.4325 26.2921 38.6955C27.0616 40.9508 29.5147 43.4039 31.3164 44.9763C31.3331 45.1515 31.3469 45.3197 31.3567 45.4683L15.1955 45.4723ZM52.997 46.5763C53.0058 46.287 53.181 39.4433 48.8769 35.5015C48.4922 35.1492 47.9116 35.1246 47.4983 35.4424C47.4609 35.471 44.443 37.7341 40.9842 36.8495C40.7373 34.9307 39.152 34.364 38.6364 34.2311C37.0915 33.8326 34.9907 34.3994 33.9673 36.2562C33.8807 36.4116 33.7174 36.5091 33.5471 36.51C33.3671 36.51 33.1939 36.4126 33.1083 36.264C32.3191 34.8943 30.9326 34.0786 29.3956 34.0786C29.0493 34.0786 28.7108 34.1209 28.3929 34.2065C27.9236 34.3315 26.5489 34.8373 26.1583 36.451C24.3565 37.1703 21.5177 37.6613 18.8028 35.4513C18.3984 35.1216 17.8159 35.1305 17.4223 35.4719C17.2461 35.6254 13.1035 39.3075 13.0002 46.5291C12.9952 46.8154 13.1064 47.0939 13.3091 47.2976C13.5108 47.5023 13.7844 47.6174 14.0717 47.6174L32.4618 47.6135C32.6566 47.6135 32.8377 47.5573 32.9961 47.4658C33.1585 47.5613 33.3434 47.6174 33.5353 47.6174L51.9254 47.6135C52.504 47.6135 52.9773 47.1539 52.997 46.5763Z" fill="#213170"/>
</svg>
