<svg width="65" height="65" viewBox="0 0 65 65" fill="none" xmlns="http://www.w3.org/2000/svg">
<path d="M0 10C0 4.47715 4.47715 0 10 0H55C60.5228 0 65 4.47715 65 10V55C65 60.5228 60.5228 65 55 65H10C4.47715 65 0 60.5228 0 55V10Z" fill="#CBE2F7"/>
<path d="M36.3895 21.3839H29.6105V20.5978C29.6105 20.1429 30.1463 19.759 30.7814 19.759H35.2186C35.8527 19.759 36.3895 20.1429 36.3895 20.5978V21.3839ZM28.4332 16.8576H37.5668C39.4383 16.8576 40.9622 18.074 40.9622 19.5679V21.3839H38.2464V20.5978C38.2464 19.1103 36.8881 17.9011 35.2186 17.9011H30.7814C29.111 17.9011 27.7526 19.1103 27.7526 20.5978V21.3839H25.0377V19.5679C25.0377 18.074 26.5608 16.8576 28.4332 16.8576ZM51.1421 46.5694C51.1421 48.0342 49.9512 49.217 48.4864 49.217H17.5127C16.0488 49.217 14.8569 48.0342 14.8569 46.5694V25.8984C14.8569 24.4336 16.0488 23.2417 17.5127 23.2417H48.4864C49.9512 23.2417 51.1421 24.4336 51.1421 25.8984V46.5694ZM42.8201 21.3839V19.5679C42.8201 17.0496 40.4637 14.9998 37.5668 14.9998H28.4332C25.5363 14.9998 23.1799 17.0496 23.1799 19.5679V21.3839H17.5127C15.0243 21.3839 13 23.4092 13 25.8984V46.5694C13 49.0532 15.0243 51.082 17.5127 51.082H48.4864C50.9757 51.082 53 49.0532 53 46.5694V25.8984C53 23.4092 50.9757 21.3839 48.4864 21.3839H42.8201Z" fill="#213170"/>
<path d="M39.8414 38.0442H35.7372C35.4288 38.0442 35.1795 38.2898 35.1795 38.5991V42.7024H31.563V38.5991C31.563 38.2898 31.3137 38.0442 31.0062 38.0442H26.902V34.4231H31.0062C31.3137 34.4231 31.563 34.1774 31.563 33.8681V29.7649H35.1795V33.8681C35.1795 34.1774 35.4288 34.4231 35.7372 34.4231H39.8414V38.0442ZM40.3991 33.304H36.294V29.2008C36.294 28.9005 36.0447 28.6458 35.7372 28.6458H31.0062C30.6977 28.6458 30.4494 28.9005 30.4494 29.2008V33.304H26.3443C26.0368 33.304 25.7875 33.5587 25.7875 33.8681V38.5991C25.7875 38.9085 26.0368 39.1541 26.3443 39.1541H30.4494V43.2574C30.4494 43.5667 30.6977 43.8124 31.0062 43.8124H35.7372C36.0447 43.8124 36.294 43.5667 36.294 43.2574V39.1541H40.3991C40.7057 39.1541 40.9559 38.9085 40.9559 38.5991V33.8681C40.9559 33.5587 40.7057 33.304 40.3991 33.304Z" fill="#213170"/>
</svg>
