<svg width="65" height="65" viewBox="0 0 65 65" fill="none" xmlns="http://www.w3.org/2000/svg">
<path d="M0 10C0 4.47715 4.47715 0 10 0H55C60.5228 0 65 4.47715 65 10V55C65 60.5228 60.5228 65 55 65H10C4.47715 65 0 60.5228 0 55V10Z" fill="#CBE2F7"/>
<path d="M22.9869 45.6029H15.4399V38.217L22.9869 32.1156V45.6029ZM23.2783 29.863L14.1651 37.2303C13.9814 37.3792 13.8745 37.6043 13.8745 37.8414V46.3872C13.8745 46.821 14.225 47.1715 14.6564 47.1715H23.7704C24.2026 47.1715 24.5523 46.821 24.5523 46.3872V30.4741C24.5523 30.1714 24.3799 29.8962 24.1079 29.7659C23.836 29.6356 23.5131 29.6736 23.2783 29.863Z" fill="#213170"/>
<path d="M36.2169 45.6027H28.6699V27.6677L30.1138 26.7619L36.2169 33.1466V45.6027ZM29.8233 25.0938L27.4719 26.5669C27.2429 26.7101 27.1036 26.9619 27.1036 27.2322V46.387C27.1036 46.8208 27.4541 47.1713 27.8872 47.1713H36.9995C37.4326 47.1713 37.7822 46.8208 37.7822 46.387V32.8309C37.7822 32.6286 37.7046 32.4343 37.5654 32.2886L30.8043 25.216C30.5477 24.9481 30.1382 24.8971 29.8233 25.0938Z" fill="#213170"/>
<path d="M46.3758 46.0715H41.4999V33.426L46.3758 28.5372V46.0715ZM46.5369 26.8204L40.5626 32.8093C40.4598 32.9121 40.4023 33.0521 40.4023 33.1986V46.6219C40.4023 46.9254 40.6476 47.1707 40.9512 47.1707H46.9246C47.2282 47.1707 47.4734 46.9254 47.4734 46.6219V27.2089C47.4734 26.9871 47.3398 26.7864 47.1343 26.7014C46.9295 26.6164 46.694 26.6626 46.5369 26.8204Z" fill="#213170"/>
<path d="M51.6742 18.1748C47.3649 21.351 43.0564 24.5271 38.7479 27.7024C36.2403 25.071 33.7327 22.4388 31.226 19.8074C30.9629 19.5314 30.4368 19.4359 30.1098 19.6633C24.5434 23.5453 18.9763 27.4272 13.41 31.3092C12.4435 31.9826 13.363 33.5828 14.3392 32.9021C19.7105 29.1569 25.0809 25.411 30.4522 21.6666C32.9638 24.3021 35.4746 26.9383 37.987 29.5746C38.2436 29.8441 38.7835 29.9542 39.1024 29.7195C43.6028 26.4025 48.1031 23.0855 52.6034 19.7685C53.548 19.0724 52.6301 17.4706 51.6742 18.1748Z" fill="#213170"/>
</svg>
