<svg width="65" height="65" viewBox="0 0 65 65" fill="none" xmlns="http://www.w3.org/2000/svg">
<path d="M0 10C0 4.47715 4.47715 0 10 0H55C60.5228 0 65 4.47715 65 10V55C65 60.5228 60.5228 65 55 65H10C4.47715 65 0 60.5228 0 55V10Z" fill="#CBE2F7"/>
<path d="M49.1362 15.5614H17.7811C17.3536 15.5614 17.0055 15.2125 17.0055 14.785C17.0055 14.3558 17.3536 14.0069 17.7811 14.0069H49.1362C49.5661 14.0069 49.9134 14.3558 49.9134 14.785C49.9134 15.2125 49.5661 15.5614 49.1362 15.5614ZM19.1314 33.918V17.3466C19.1314 17.068 19.2001 16.8058 19.3142 16.5694H48.2845C48.4003 16.8058 48.4664 17.068 48.4664 17.3466V33.918C48.4664 34.1975 48.4003 34.4596 48.2845 34.6961H19.3142C19.2001 34.4596 19.1314 34.1975 19.1314 33.918ZM49.9134 36.4813C49.9134 36.9105 49.5661 37.2586 49.1362 37.2586H17.7811C17.3536 37.2586 17.0055 36.9105 17.0055 36.4813C17.0055 36.053 17.3536 35.7041 17.7811 35.7041H49.1362C49.5661 35.7041 49.9134 36.053 49.9134 36.4813ZM41.4215 50.2123C41.529 50.3124 41.529 50.4687 41.5207 50.5539C41.4959 50.744 41.3966 50.9475 41.2395 51.1112C41.0824 51.2749 40.884 51.3849 40.6938 51.413C40.6111 51.4237 40.454 51.4295 40.3548 51.3303L35.2281 46.3922C35.0876 46.2516 34.8726 46.2136 34.6824 46.2913C34.5005 46.3707 34.3765 46.5534 34.3765 46.756V51.136C34.3765 51.6073 34.0292 51.9918 33.6075 51.9918C33.1775 51.9918 32.8302 51.6073 32.8302 51.136V46.6998C32.8302 46.4939 32.7062 46.3095 32.516 46.2326C32.4581 46.2086 32.392 46.1962 32.3259 46.1962C32.1936 46.1962 32.0613 46.25 31.962 46.3509L27.3836 51.1252C27.3001 51.212 27.1554 51.2087 27.0769 51.198C26.8875 51.174 26.6849 51.0682 26.5187 50.9069C26.3517 50.7473 26.2392 50.5472 26.207 50.3587C26.1938 50.281 26.1846 50.1363 26.2681 50.0478L32.3093 43.752C32.3424 43.7239 32.3837 43.7024 32.4416 43.6892C32.6731 43.6362 32.8302 43.432 32.8302 43.1972V38.6163C32.8302 38.4922 32.8551 38.3732 32.8964 38.2665H34.3103C34.3517 38.3732 34.3765 38.4922 34.3765 38.6163V43.3237C34.3765 43.5436 34.5171 43.7371 34.732 43.8049C34.7817 43.8206 34.823 43.8421 34.8478 43.8702L41.4215 50.2123ZM50.9222 14.785C50.9222 13.8002 50.1201 12.9998 49.1362 12.9998H17.7811C16.7988 12.9998 16.0001 13.8002 16.0001 14.785C16.0001 15.7483 16.7674 16.5305 17.7208 16.5636C17.6596 16.8158 17.624 17.0762 17.624 17.3466V33.918C17.624 34.1892 17.6596 34.4497 17.7208 34.7019C16.7674 34.7349 16.0001 35.5172 16.0001 36.4813C16.0001 37.4661 16.7988 38.2665 17.7811 38.2665H31.8628C31.838 38.3798 31.8214 38.4972 31.8214 38.6163V42.8623C31.7387 42.9152 31.6561 42.9789 31.5899 43.0533L25.5438 49.3499C25.2594 49.6468 25.1403 50.0751 25.2156 50.5257C25.2834 50.9293 25.4984 51.322 25.8208 51.6338C26.1442 51.9455 26.5443 52.1456 26.9487 52.1977C27.401 52.2555 27.8243 52.12 28.1088 51.8239L31.8214 47.9509V51.136C31.8214 52.1629 32.6235 52.9998 33.6075 52.9998C34.5832 52.9998 35.3853 52.1629 35.3853 51.136V47.9401L39.652 52.0571C39.9579 52.3473 40.3879 52.4763 40.8426 52.4102C41.2478 52.3498 41.653 52.1373 41.9672 51.8099C42.2814 51.4841 42.4716 51.0748 42.5212 50.6597C42.5708 50.2041 42.422 49.7758 42.1243 49.4864L35.5424 43.1434C35.4928 43.0955 35.4431 43.0516 35.3853 43.0128V38.6163C35.3853 38.4972 35.3687 38.3798 35.3522 38.2665H49.1362C50.1201 38.2665 50.9222 37.4661 50.9222 36.4813C50.9222 35.7479 50.4757 35.1186 49.8473 34.8441C49.93 34.5489 49.9796 34.2396 49.9796 33.918V17.3466C49.9796 17.0266 49.93 16.7166 49.8473 16.4214C50.4757 16.1468 50.9222 15.5176 50.9222 14.785Z" fill="#213170"/>
<path d="M44.3981 19.5437C44.0591 19.2923 43.5878 19.3584 43.3398 19.6917L38.7754 25.7667L32.6896 22.7172C32.3506 22.546 31.9372 22.656 31.7222 22.9735L27.5175 29.2999H22.9788C22.5621 29.2999 22.2247 29.6381 22.2247 30.0557C22.2247 30.4724 22.5621 30.8114 22.9788 30.8114H27.921C28.1732 30.8114 28.4089 30.6849 28.5487 30.4741L32.6069 24.3676L38.6596 27.4006C38.9821 27.5635 39.379 27.4709 39.6023 27.179L44.547 20.6012C44.795 20.2688 44.7289 19.7934 44.3981 19.5437Z" fill="#213170"/>
</svg>
