<svg width="21" height="14" viewBox="0 0 21 14" fill="none" xmlns="http://www.w3.org/2000/svg">
<path d="M18.2471 5.69449L19.1009 6.5481H17.8936L1.04749 6.5481C0.990669 6.5481 0.936178 6.57068 0.896002 6.61085C0.855824 6.65103 0.833252 6.70552 0.833252 6.76234C0.833252 6.81917 0.855824 6.87366 0.896 6.91383C0.93618 6.95401 0.990673 6.97658 1.04749 6.97658L17.8936 6.97658H19.1009L18.2471 7.83019L13.7517 12.3241C13.7517 12.3242 13.7516 12.3242 13.7516 12.3242C13.7113 12.3645 13.6887 12.4192 13.6887 12.4763C13.6887 12.5333 13.7113 12.588 13.7517 12.6284C13.792 12.6687 13.8468 12.6914 13.9038 12.6914C13.9321 12.6914 13.96 12.6858 13.9861 12.675C14.0122 12.6642 14.036 12.6484 14.0559 12.6284L19.7699 6.91447L19.7703 6.91403C19.7903 6.89413 19.8061 6.87048 19.8169 6.84445C19.8277 6.81843 19.8333 6.79052 19.8333 6.76234C19.8333 6.73416 19.8277 6.70626 19.8169 6.68023C19.8061 6.6542 19.7903 6.63056 19.7703 6.61066L19.7699 6.61021L14.0559 0.896295C14.0156 0.855948 13.9609 0.833282 13.9038 0.833282C13.8468 0.833282 13.792 0.855948 13.7517 0.896295C13.7113 0.936642 13.6887 0.991364 13.6887 1.04842C13.6887 1.10548 13.7113 1.1602 13.7517 1.20055L18.2471 5.69449Z" fill="white" stroke="#213170"/>
</svg>
