<svg width="15" height="10" viewBox="0 0 15 10" fill="none" xmlns="http://www.w3.org/2000/svg">
<path fill-rule="evenodd" clip-rule="evenodd" d="M-9.53674e-07 5.1782C-9.53674e-07 5.03613 0.0564365 4.89988 0.156896 4.79942C0.257356 4.69896 0.393608 4.64252 0.53568 4.64252L13.1702 4.64252L9.79866 1.27202C9.69807 1.17144 9.64156 1.03501 9.64156 0.892763C9.64156 0.750512 9.69807 0.614087 9.79866 0.513501C9.89925 0.412914 10.0357 0.356406 10.1779 0.356406C10.3202 0.356406 10.4566 0.412914 10.5572 0.513501L14.8426 4.79894C14.8925 4.8487 14.9321 4.90781 14.9591 4.9729C14.9861 5.03797 15 5.10774 15 5.1782C15 5.24866 14.9861 5.31843 14.9591 5.38351C14.9321 5.44859 14.8925 5.5077 14.8426 5.55746L10.5572 9.8429C10.5074 9.89271 10.4483 9.93222 10.3832 9.95917C10.3181 9.98613 10.2484 10 10.1779 10C10.0357 10 9.89925 9.94349 9.79866 9.8429C9.69807 9.74232 9.64156 9.60589 9.64156 9.46364C9.64156 9.32139 9.69807 9.18497 9.79866 9.08438L13.1702 5.71388L0.53568 5.71388C0.393608 5.71388 0.257356 5.65744 0.156896 5.55699C0.0564365 5.45653 -9.53674e-07 5.32027 -9.53674e-07 5.1782Z" fill="black"/>
</svg>
