<svg width="160" height="26" viewBox="0 0 160 26" fill="none" xmlns="http://www.w3.org/2000/svg">
<path fill-rule="evenodd" clip-rule="evenodd" d="M42.7503 11.8203H39.146L38.4436 14.2407H35.5881L39.291 3.22266H42.7195L46.423 14.2407H43.4451L42.7503 11.8203ZM39.6883 9.80413H42.2004L40.9789 5.55897H40.9174L39.6883 9.80413Z" fill="#F4F4F4"/>
<path d="M50.073 2.67285H47.3701V14.2408H50.073V2.67285Z" fill="#F4F4F4"/>
<path fill-rule="evenodd" clip-rule="evenodd" d="M56.8164 5.62793C57.8904 5.62793 58.7253 6.00957 59.321 6.77286C59.9217 7.53678 60.2217 8.60827 60.2217 9.98733C60.2217 11.367 59.9242 12.4385 59.3285 13.2024C58.7378 13.9707 57.9105 14.3549 56.8466 14.3549C55.5692 14.3549 54.7011 13.8333 54.2428 12.79H54.1895V16.8293H51.4866V5.74217H54.1744V7.23108H54.2278C54.4418 6.72704 54.7751 6.33535 55.2283 6.0554C55.6809 5.77042 56.2107 5.62793 56.8164 5.62793ZM55.8159 12.2251C56.3149 12.2251 56.7122 12.0236 57.0073 11.6219C57.3023 11.2145 57.4498 10.6696 57.4498 9.98733C57.4498 9.31067 57.3023 8.77084 57.0073 8.36911C56.7066 7.96173 56.3099 7.75773 55.8159 7.75773C55.3225 7.75773 54.9251 7.96173 54.6251 8.36911C54.3295 8.77586 54.1819 9.3182 54.1819 9.99549C54.1819 10.6772 54.3295 11.2195 54.6251 11.6219C54.9201 12.0236 55.3175 12.2251 55.8159 12.2251Z" fill="#F4F4F4"/>
<path fill-rule="evenodd" clip-rule="evenodd" d="M61.3605 2.67285H64.01V7.33795H64.0634C64.5216 6.17732 65.4349 5.59732 66.8046 5.59732C67.7511 5.59732 68.4944 5.87979 69.0342 6.44472C69.574 7.01468 69.8433 7.80119 69.8433 8.80426V14.2408H67.1329V9.38426C67.1329 8.89591 67.0004 8.50924 66.7355 8.22364C66.4662 7.94368 66.0997 7.8037 65.6364 7.8037C65.1732 7.8037 64.7965 7.95686 64.5059 8.26193C64.2109 8.57264 64.0634 8.96998 64.0634 9.45331V14.2408H61.3605V2.67285Z" fill="#F4F4F4"/>
<path fill-rule="evenodd" clip-rule="evenodd" d="M74.6546 12.477C75.1028 12.477 75.4794 12.3571 75.7845 12.118C76.1052 11.8738 76.2659 11.5606 76.2659 11.1789V10.5908L74.7004 10.6981C73.9064 10.754 73.509 11.054 73.509 11.5988C73.509 11.8688 73.6138 12.0828 73.8222 12.2404C74.0263 12.3979 74.3037 12.477 74.6546 12.477ZM73.7005 14.3551C72.8907 14.3551 72.2141 14.1159 71.6692 13.6376C71.1093 13.1543 70.8293 12.5354 70.8293 11.7821C70.8293 10.189 71.9768 9.32091 74.2729 9.17842L76.2659 9.05602V8.56767C76.2659 8.22682 76.151 7.96193 75.9219 7.77362C75.6985 7.59033 75.3928 7.49869 75.0061 7.49869C74.6445 7.49869 74.3439 7.58531 74.1047 7.75793C73.8756 7.92615 73.7406 8.14522 73.7005 8.41513H71.2643C71.3001 7.55455 71.6667 6.86471 72.3641 6.34559C73.0665 5.82146 73.9905 5.55908 75.1354 5.55908C76.2659 5.55908 77.1767 5.82146 77.8691 6.34559C78.5614 6.87475 78.9079 7.56711 78.9079 8.42267V14.2409H76.281V13.0193H76.2276C76.0035 13.4368 75.6552 13.7651 75.1812 14.0042C74.7236 14.2383 74.2296 14.3551 73.7005 14.3551Z" fill="#F4F4F4"/>
<path fill-rule="evenodd" clip-rule="evenodd" d="M83.4219 5.74217H86.0488V7.37608H86.1022C86.2698 6.83123 86.573 6.39875 87.0105 6.07799C87.4486 5.75723 87.9552 5.59717 88.5301 5.59717C89.1616 5.59717 89.6832 5.75221 90.0956 6.06292C90.508 6.37866 90.7748 6.8237 90.8972 7.39931H90.9506C91.1188 6.84944 91.4396 6.4113 91.9129 6.08552C92.3912 5.75974 92.9461 5.59717 93.5775 5.59717C94.4074 5.59717 95.079 5.86206 95.5931 6.39121C96.1072 6.92602 96.3645 7.6234 96.3645 8.48335V14.2406H93.661V9.17069C93.661 8.25424 93.2543 7.79601 92.4395 7.79601C92.0579 7.79601 91.7547 7.92344 91.5312 8.17766C91.3021 8.43251 91.1872 8.77335 91.1872 9.20082V14.2406H88.6067V9.1324C88.6067 8.70493 88.4994 8.37413 88.286 8.14C88.0769 7.91088 87.7769 7.79601 87.3846 7.79601C87.008 7.79601 86.7029 7.92595 86.4688 8.18582C86.2396 8.44506 86.1248 8.78904 86.1248 9.21651V14.2406H83.4219V5.74217Z" fill="#F4F4F4"/>
<path fill-rule="evenodd" clip-rule="evenodd" d="M101.175 12.477C101.623 12.477 102 12.3571 102.306 12.118C102.626 11.8738 102.787 11.5606 102.787 11.1789V10.5908L101.221 10.6981C100.427 10.754 100.03 11.054 100.03 11.5988C100.03 11.8688 100.134 12.0828 100.343 12.2404C100.547 12.3979 100.824 12.477 101.175 12.477ZM100.221 14.3551C99.4114 14.3551 98.7347 14.1159 98.1898 13.6376C97.6299 13.1543 97.35 12.5354 97.35 11.7821C97.35 10.189 98.4981 9.32091 100.794 9.17842L102.787 9.05602V8.56767C102.787 8.22682 102.672 7.96193 102.443 7.77362C102.219 7.59033 101.913 7.49869 101.527 7.49869C101.165 7.49869 100.865 7.58531 100.625 7.75793C100.397 7.92615 100.262 8.14522 100.221 8.41513H97.785C97.8208 7.55455 98.1873 6.86471 98.8847 6.34559C99.5871 5.82146 100.511 5.55908 101.657 5.55908C102.787 5.55908 103.698 5.82146 104.39 6.34559C105.082 6.87475 105.429 7.56711 105.429 8.42267V14.2409H102.802V13.0193H102.748C102.524 13.4368 102.176 13.7651 101.702 14.0042C101.244 14.2383 100.75 14.3551 100.221 14.3551Z" fill="#F4F4F4"/>
<path fill-rule="evenodd" clip-rule="evenodd" d="M106.781 5.74217H109.408V7.33779H109.461C109.771 6.19788 110.441 5.62793 111.469 5.62793C111.713 5.62793 111.942 5.66308 112.156 5.73464V8.05589C111.922 7.9542 111.632 7.90336 111.286 7.90336C110.706 7.90336 110.26 8.06091 109.949 8.37664C109.639 8.6974 109.484 9.15562 109.484 9.75069V14.2407H106.781V5.74217Z" fill="#F4F4F4"/>
<path fill-rule="evenodd" clip-rule="evenodd" d="M118.311 5.74232H121.335L118.281 9.38426L121.511 14.2408H118.395L116.281 11.0031L115.761 11.6063V14.2408H113.058V2.67285H115.761V8.99508H115.815L118.311 5.74232Z" fill="#F4F4F4"/>
<path fill-rule="evenodd" clip-rule="evenodd" d="M125.619 7.48362C125.187 7.48362 124.823 7.62862 124.527 7.91862C124.232 8.20862 124.066 8.58022 124.031 9.03342H127.192C127.167 8.56516 127.012 8.18853 126.727 7.90356C126.436 7.6236 126.067 7.48362 125.619 7.48362ZM129.697 11.5681C129.564 12.4387 129.137 13.1311 128.414 13.6452C127.686 14.1643 126.772 14.4241 125.673 14.4241C124.329 14.4241 123.275 14.035 122.512 13.256C121.748 12.477 121.366 11.403 121.366 10.0334C121.366 8.66433 121.745 7.57464 122.504 6.76553C123.262 5.96144 124.288 5.55908 125.581 5.55908C126.848 5.55908 127.861 5.94324 128.62 6.71217C129.374 7.48613 129.75 8.51933 129.75 9.8124V10.5832H124V10.7514C124 11.2706 124.158 11.6905 124.474 12.0112C124.789 12.337 125.202 12.5002 125.711 12.5002C126.52 12.5002 127.034 12.1895 127.253 11.5681H129.697Z" fill="#F4F4F4"/>
<path fill-rule="evenodd" clip-rule="evenodd" d="M134.218 3.86426V5.74235H135.752V7.74284H134.218V11.3697C134.218 11.9654 134.546 12.2629 135.203 12.2629C135.391 12.2629 135.574 12.2504 135.752 12.2253V14.1492C135.442 14.2207 135.045 14.2559 134.561 14.2559C133.472 14.2559 132.69 14.0726 132.217 13.706C131.749 13.3451 131.515 12.7469 131.515 11.912V7.74284H130.377V5.74235H131.515V3.86426H134.218Z" fill="#F4F4F4"/>
<path fill-rule="evenodd" clip-rule="evenodd" d="M136.937 5.74235H139.647V14.2408H136.937V5.74235ZM138.288 5.03995C137.901 5.03995 137.575 4.91253 137.311 4.65831C137.036 4.40346 136.899 4.08521 136.899 3.70357C136.899 3.32695 137.036 3.0087 137.311 2.74946C137.575 2.49461 137.901 2.36719 138.288 2.36719C138.675 2.36719 139.003 2.49461 139.273 2.74946C139.548 3.0087 139.686 3.32695 139.686 3.70357C139.686 4.08521 139.548 4.40346 139.273 4.65831C139.008 4.91253 138.68 5.03995 138.288 5.03995Z" fill="#F4F4F4"/>
<path fill-rule="evenodd" clip-rule="evenodd" d="M141.023 5.74217H143.649V7.33779H143.702C144.171 6.17717 145.075 5.59717 146.413 5.59717C147.36 5.59717 148.103 5.87963 148.643 6.44457C149.177 7.0095 149.445 7.7935 149.445 8.79657V14.2406H146.734V9.37657C146.734 8.8832 146.607 8.49841 146.352 8.22348C146.093 7.94352 145.731 7.80355 145.268 7.80355C144.81 7.80355 144.438 7.95671 144.153 8.26177C143.868 8.56746 143.726 8.96166 143.726 9.44562V14.2406H141.023V5.74217Z" fill="#F4F4F4"/>
<path fill-rule="evenodd" clip-rule="evenodd" d="M154.898 12.1485C155.407 12.1485 155.806 11.9602 156.096 11.5836C156.392 11.2019 156.539 10.6696 156.539 9.98733C156.539 9.30565 156.392 8.76331 156.096 8.36095C155.801 7.95922 155.401 7.75773 154.898 7.75773C154.394 7.75773 153.996 7.95671 153.706 8.35342C153.411 8.75578 153.263 9.29811 153.263 9.9798C153.263 10.6671 153.408 11.2019 153.699 11.5836C153.989 11.9602 154.389 12.1485 154.898 12.1485ZM154.852 17.3942C153.65 17.3942 152.676 17.1601 151.927 16.6918C151.168 16.2185 150.772 15.5871 150.736 14.7981H153.362C153.419 15.0372 153.591 15.2305 153.882 15.3781C154.167 15.5212 154.505 15.5921 154.898 15.5921C155.391 15.5921 155.786 15.4753 156.081 15.2412C156.376 15.0014 156.524 14.6782 156.524 14.2714V12.6601H156.47C156.297 13.1133 155.979 13.4749 155.516 13.7441C155.048 14.0191 154.503 14.1565 153.882 14.1565C152.859 14.1565 152.042 13.7875 151.431 13.0493C150.81 12.296 150.499 11.2678 150.499 9.96474C150.499 8.6158 150.804 7.55686 151.416 6.78855C152.026 6.01459 152.864 5.62793 153.928 5.62793C154.529 5.62793 155.06 5.77544 155.523 6.07046C155.972 6.36046 156.295 6.74775 156.493 7.23108H156.539V5.74217H159.234V14.0724C159.234 15.0805 158.835 15.8846 158.036 16.4853C157.236 17.0911 156.175 17.3942 154.852 17.3942Z" fill="#F4F4F4"/>
<path fill-rule="evenodd" clip-rule="evenodd" d="M39.2226 21.3333H36.831L36.1995 23.0777H35.6277L37.7581 17.3838H38.2948L40.4221 23.0777H39.854L39.2226 21.3333ZM36.9929 20.8682H39.0606L38.0387 18.0504H38.0149L36.9929 20.8682Z" fill="#F4F4F4"/>
<path fill-rule="evenodd" clip-rule="evenodd" d="M44.3799 23.0777H43.6894L41.606 20.9981H41.5822V23.0777H41.0649V18.8281H41.5822V20.7414H41.606L43.6379 18.8281H44.3008L42.1346 20.8481L44.3799 23.0777Z" fill="#F4F4F4"/>
<path fill-rule="evenodd" clip-rule="evenodd" d="M48.0099 19.2656H46.558V23.0777H46.0414V19.2656H44.5889V18.8281H48.0099V19.2656Z" fill="#F4F4F4"/>
<path fill-rule="evenodd" clip-rule="evenodd" d="M49.0047 24.5572C48.915 24.5572 48.8283 24.5471 48.7442 24.5258V24.0801C48.8227 24.0983 48.9087 24.1077 49.0003 24.1077C49.1924 24.1077 49.3493 24.0512 49.4698 23.9376C49.5885 23.8272 49.6952 23.6382 49.79 23.3696L49.8848 23.1053L48.2866 18.8281H48.8465L50.149 22.5492H50.161L51.4666 18.8281H52.019L50.3618 23.2829C50.1779 23.7826 49.9908 24.1197 49.8013 24.2929C49.6148 24.4693 49.3493 24.5572 49.0047 24.5572Z" fill="#F4F4F4"/>
<path fill-rule="evenodd" clip-rule="evenodd" d="M53.9171 22.667C54.2987 22.667 54.617 22.5528 54.8725 22.3237C55.1298 22.0977 55.2591 21.8158 55.2591 21.4794V21.0099L54.0156 21.0965C53.2869 21.1442 52.9228 21.411 52.9228 21.8974C52.9228 22.1266 53.0151 22.3117 53.199 22.4542C53.3829 22.5961 53.6227 22.667 53.9171 22.667ZM53.8148 23.1246C53.3911 23.1246 53.0477 23.0116 52.7847 22.7857C52.5217 22.5565 52.3899 22.2596 52.3899 21.8937C52.3899 21.1542 52.9109 20.7481 53.9529 20.6747L55.2591 20.5874V20.2246C55.2591 19.9139 55.1656 19.6735 54.9786 19.5028C54.7896 19.3314 54.5235 19.246 54.1814 19.246C53.8845 19.246 53.6384 19.317 53.4438 19.4588C53.2492 19.6038 53.1281 19.8022 53.0804 20.0551H52.5795C52.6008 19.681 52.7621 19.376 53.0647 19.1393C53.3647 18.9002 53.7382 18.7803 54.1858 18.7803C54.6722 18.7803 55.0602 18.9064 55.3495 19.1594C55.6364 19.4117 55.7795 19.7526 55.7795 20.1813V23.0775H55.2824V22.2647H55.2704C55.1549 22.5226 54.9654 22.7304 54.7024 22.888C54.4368 23.0461 54.1406 23.1246 53.8148 23.1246Z" fill="#F4F4F4"/>
<path fill-rule="evenodd" clip-rule="evenodd" d="M57.7134 21.2504C57.6657 21.8612 57.5684 22.3081 57.4215 22.5925C57.2395 22.9396 56.9595 23.1135 56.581 23.1135C56.4938 23.1135 56.4147 23.1003 56.3438 23.0739V22.5962C56.4071 22.6176 56.4781 22.6276 56.5572 22.6276C56.7649 22.6276 56.9225 22.4989 57.0305 22.241C57.1227 22.02 57.1855 21.6835 57.22 21.231C57.2803 20.5995 57.3355 19.7986 57.3857 18.8281H60.1043V23.0777H59.5877V19.2656H57.8553C57.8132 20.076 57.7661 20.7376 57.7134 21.2504Z" fill="#F4F4F4"/>
<path fill-rule="evenodd" clip-rule="evenodd" d="M61.6355 20.7137V22.6395H62.5551C62.8658 22.6395 63.1144 22.5517 63.3008 22.3753C63.4853 22.2014 63.577 21.9692 63.577 21.6766C63.577 21.3823 63.4841 21.1481 63.297 20.9742C63.1131 20.801 62.8658 20.7137 62.5551 20.7137H61.6355ZM61.1189 18.8281H61.6355V20.2718H62.5551C63.0234 20.2718 63.3968 20.3986 63.6755 20.651C63.9574 20.9058 64.098 21.2479 64.098 21.6766C64.098 22.1029 63.9574 22.4437 63.6755 22.6992C63.3968 22.9515 63.0234 23.0777 62.5551 23.0777H61.1189V18.8281Z" fill="#F4F4F4"/>
<path fill-rule="evenodd" clip-rule="evenodd" d="M67.7838 21.0891H65.4004V23.0777H64.8832V18.8281H65.4004V20.651H67.7838V18.8281H68.3004V23.0777H67.7838V21.0891Z" fill="#F4F4F4"/>
<path fill-rule="evenodd" clip-rule="evenodd" d="M72.9292 18.8281H73.4464V23.0777H72.9292V18.8281ZM69.8352 20.7137V22.6395H70.7548C71.0655 22.6395 71.3141 22.5517 71.5005 22.3753C71.6851 22.2014 71.7767 21.9692 71.7767 21.6766C71.7767 21.3823 71.6838 21.1481 71.4967 20.9742C71.3128 20.801 71.0655 20.7137 70.7548 20.7137H69.8352ZM69.3186 18.8281H69.8352V20.2718H70.7548C71.2231 20.2718 71.5965 20.3986 71.8759 20.651C72.1571 20.9058 72.2977 21.2479 72.2977 21.6766C72.2977 22.1029 72.1571 22.4437 71.8759 22.6992C71.5965 22.9515 71.2231 23.0777 70.7548 23.0777H69.3186V18.8281Z" fill="#F4F4F4"/>
<path fill-rule="evenodd" clip-rule="evenodd" d="M75.4506 17.0405C75.4506 17.2772 75.5216 17.4692 75.664 17.6168C75.8084 17.7662 76.0005 17.8415 76.2396 17.8415C76.4794 17.8415 76.6703 17.7662 76.8121 17.6168C76.954 17.4692 77.0249 17.2772 77.0249 17.0405H77.4235C77.4235 17.3795 77.3155 17.6519 77.1002 17.8572C76.8818 18.0649 76.5949 18.1691 76.2396 18.1691C75.8819 18.1691 75.5956 18.0649 75.3797 17.8572C75.1612 17.6519 75.052 17.3795 75.052 17.0405H75.4506ZM74.4639 23.0778V18.8282H74.9811V22.2649H75.0049L77.4197 18.8282H77.9363V23.0778H77.4197V19.6411H77.3921L74.9811 23.0778H74.4639Z" fill="#F4F4F4"/>
<path fill-rule="evenodd" clip-rule="evenodd" d="M80.7427 23.0777V18.8281H81.3622L83.0432 22.3872H83.0664L84.7437 18.8281H85.3438V23.0777H84.8228V19.7747H84.7989L83.2441 22.9948H82.838L81.2831 19.7747H81.2593V23.0777H80.7427Z" fill="#F4F4F4"/>
<path fill-rule="evenodd" clip-rule="evenodd" d="M87.7153 22.667C88.0963 22.667 88.4152 22.5528 88.6701 22.3237C88.928 22.0977 89.0567 21.8158 89.0567 21.4794V21.0099L87.8139 21.0965C87.0851 21.1442 86.721 21.411 86.721 21.8974C86.721 22.1266 86.8127 22.3117 86.9972 22.4542C87.1811 22.5961 87.4203 22.667 87.7153 22.667ZM87.6124 23.1246C87.1893 23.1246 86.8459 23.0116 86.5829 22.7857C86.3193 22.5565 86.1881 22.2596 86.1881 21.8937C86.1881 21.1542 86.7091 20.7481 87.7505 20.6747L89.0567 20.5874V20.2246C89.0567 19.9139 88.9632 19.6735 88.7768 19.5028C88.5872 19.3314 88.3217 19.246 87.9796 19.246C87.6821 19.246 87.4366 19.317 87.2414 19.4588C87.0468 19.6038 86.9257 19.8022 86.8786 20.0551H86.3777C86.3984 19.681 86.5603 19.376 86.8629 19.1393C87.1629 18.9002 87.5364 18.7803 87.9834 18.7803C88.4705 18.7803 88.8584 18.9064 89.1477 19.1594C89.4346 19.4117 89.5777 19.7526 89.5777 20.1813V23.0775H89.0806V22.2647H89.0687C88.9532 22.5226 88.7636 22.7304 88.5006 22.888C88.2344 23.0461 87.9388 23.1246 87.6124 23.1246Z" fill="#F4F4F4"/>
<path fill-rule="evenodd" clip-rule="evenodd" d="M92.5217 18.7803C93.0584 18.7803 93.4947 18.9805 93.8317 19.3804C94.1657 19.7802 94.3326 20.3037 94.3326 20.9509C94.3326 21.598 94.1657 22.1228 93.8317 22.5252C93.5003 22.925 93.0659 23.1246 92.5292 23.1246C92.1953 23.1246 91.8978 23.0392 91.6373 22.8685C91.3849 22.7053 91.1985 22.4831 91.0774 22.2013H91.0654V24.4704H90.5444V18.828H91.0378V19.7074H91.0497C91.1627 19.4343 91.3523 19.2115 91.6178 19.0408C91.889 18.8669 92.1903 18.7803 92.5217 18.7803ZM92.4307 22.6551C92.8412 22.6551 93.1726 22.5 93.425 22.19C93.6748 21.8767 93.7997 21.465 93.7997 20.9546C93.7997 20.4443 93.6748 20.0313 93.425 19.7156C93.1726 19.4023 92.8412 19.246 92.4307 19.246C92.0258 19.246 91.6969 19.4036 91.4439 19.7193C91.1891 20.0376 91.0617 20.4481 91.0617 20.9509C91.0617 21.4555 91.1891 21.8661 91.4439 22.1818C91.6969 22.4975 92.0258 22.6551 92.4307 22.6551Z" fill="#F4F4F4"/>
<path fill-rule="evenodd" clip-rule="evenodd" d="M98.4524 23.0777H97.7619L95.6785 20.9981H95.6547V23.0777H95.1375V18.8281H95.6547V20.7414H95.6785L97.7104 18.8281H98.3733L96.2071 20.8481L98.4524 23.0777Z" fill="#F4F4F4"/>
<path fill-rule="evenodd" clip-rule="evenodd" d="M100.63 19.2423C100.249 19.2423 99.9362 19.3722 99.6914 19.6327C99.444 19.8907 99.3085 20.2309 99.2846 20.6546H101.929C101.923 20.2309 101.802 19.8907 101.566 19.6327C101.327 19.3722 101.015 19.2423 100.63 19.2423ZM102.418 21.8742C102.355 22.2395 102.163 22.5383 101.842 22.77C101.519 23.0066 101.128 23.1246 100.67 23.1246C100.081 23.1246 99.6123 22.9313 99.2651 22.5446C98.918 22.1554 98.7441 21.6282 98.7441 20.9622C98.7441 20.3025 98.9168 19.7733 99.2614 19.376C99.6085 18.9793 100.067 18.7803 100.639 18.7803C101.196 18.7803 101.642 18.9673 101.976 19.3408C102.308 19.7168 102.473 20.2209 102.473 20.8517V21.0808H99.2846V21.1084C99.2846 21.5874 99.4127 21.9659 99.6675 22.2452C99.9205 22.5239 100.258 22.6632 100.682 22.6632C100.995 22.6632 101.262 22.5898 101.483 22.4423C101.699 22.3004 101.838 22.1109 101.901 21.8742H102.418Z" fill="#F4F4F4"/>
<path fill-rule="evenodd" clip-rule="evenodd" d="M106.269 19.2656H104.817V23.0777H104.3V19.2656H102.848V18.8281H106.269V19.2656Z" fill="#F4F4F4"/>
<path fill-rule="evenodd" clip-rule="evenodd" d="M106.936 23.0777V18.8281H107.453V22.2648H107.477L109.892 18.8281H110.409V23.0777H109.892V19.641H109.864L107.453 23.0777H106.936Z" fill="#F4F4F4"/>
<path fill-rule="evenodd" clip-rule="evenodd" d="M114.323 21.0891H111.94V23.0777H111.423V18.8281H111.94V20.651H114.323V18.8281H114.84V23.0777H114.323V21.0891Z" fill="#F4F4F4"/>
<path fill-rule="evenodd" clip-rule="evenodd" d="M116.375 19.2656V23.0777H115.858V18.8281H118.553V19.2656H116.375Z" fill="#F4F4F4"/>
<path fill-rule="evenodd" clip-rule="evenodd" d="M121.107 23.0777V18.8281H121.623V22.2648H121.647L124.062 18.8281H124.579V23.0777H124.062V19.641H124.034L121.623 23.0777H121.107Z" fill="#F4F4F4"/>
<path fill-rule="evenodd" clip-rule="evenodd" d="M130.246 19.2656H127.902V23.0777H127.385V18.8281H130.763V23.0777H130.246V19.2656Z" fill="#F4F4F4"/>
<path fill-rule="evenodd" clip-rule="evenodd" d="M133.758 18.7803C134.295 18.7803 134.731 18.9805 135.068 19.3804C135.402 19.7802 135.569 20.3037 135.569 20.9509C135.569 21.598 135.402 22.1228 135.068 22.5252C134.737 22.925 134.303 23.1246 133.766 23.1246C133.432 23.1246 133.134 23.0392 132.874 22.8685C132.622 22.7053 132.435 22.4831 132.314 22.2013H132.302V24.4704H131.781V18.828H132.274V19.7074H132.286C132.399 19.4343 132.589 19.2115 132.854 19.0408C133.126 18.8669 133.426 18.7803 133.758 18.7803ZM133.667 22.6551C134.078 22.6551 134.409 22.5 134.662 22.19C134.911 21.8767 135.036 21.465 135.036 20.9546C135.036 20.4443 134.911 20.0313 134.662 19.7156C134.409 19.4023 134.078 19.246 133.667 19.246C133.262 19.246 132.933 19.4036 132.681 19.7193C132.426 20.0376 132.298 20.4481 132.298 20.9509C132.298 21.4555 132.426 21.8661 132.681 22.1818C132.933 22.4975 133.262 22.6551 133.667 22.6551Z" fill="#F4F4F4"/>
<path fill-rule="evenodd" clip-rule="evenodd" d="M138.091 23.1246C137.507 23.1246 137.04 22.9275 136.69 22.5327C136.338 22.141 136.161 21.6137 136.161 20.9509C136.161 20.2905 136.338 19.7626 136.69 19.3684C137.04 18.9761 137.507 18.7803 138.091 18.7803C138.678 18.7803 139.146 18.9761 139.496 19.3684C139.848 19.7626 140.024 20.2905 140.024 20.9509C140.024 21.6112 139.848 22.1385 139.496 22.5327C139.146 22.9275 138.678 23.1246 138.091 23.1246ZM138.091 22.6551C138.525 22.6551 138.867 22.5038 139.116 22.2013C139.367 21.8962 139.492 21.4794 139.492 20.9509C139.492 20.4217 139.367 20.0049 139.116 19.6999C138.867 19.3973 138.525 19.246 138.091 19.246C137.659 19.246 137.319 19.3973 137.069 19.6999C136.819 20.0049 136.694 20.4217 136.694 20.9509C136.694 21.4794 136.819 21.8962 137.069 22.2013C137.319 22.5038 137.659 22.6551 138.091 22.6551Z" fill="#F4F4F4"/>
<path fill-rule="evenodd" clip-rule="evenodd" d="M143.734 19.2656H141.887C141.848 20.0183 141.799 20.6798 141.741 21.2504C141.686 21.9164 141.558 22.3715 141.358 22.6157V22.6395H143.734V19.2656ZM140.395 24.2025V22.6395H140.738C141.023 22.4556 141.195 21.9861 141.256 21.231C141.334 20.2574 141.389 19.4565 141.421 18.8281H144.254V22.6395H144.941V24.2025H144.452V23.0777H140.885V24.2025H140.395Z" fill="#F4F4F4"/>
<path fill-rule="evenodd" clip-rule="evenodd" d="M146.938 22.667C147.319 22.667 147.637 22.5528 147.892 22.3237C148.15 22.0977 148.279 21.8158 148.279 21.4794V21.0099L147.036 21.0965C146.307 21.1442 145.943 21.411 145.943 21.8974C145.943 22.1266 146.036 22.3117 146.22 22.4542C146.403 22.5961 146.643 22.667 146.938 22.667ZM146.835 23.1246C146.412 23.1246 146.068 23.0116 145.805 22.7857C145.542 22.5565 145.41 22.2596 145.41 21.8937C145.41 21.1542 145.931 20.7481 146.973 20.6747L148.279 20.5874V20.2246C148.279 19.9139 148.186 19.6735 147.999 19.5028C147.809 19.3314 147.544 19.246 147.202 19.246C146.905 19.246 146.659 19.317 146.464 19.4588C146.27 19.6038 146.149 19.8022 146.101 20.0551H145.6C145.621 19.681 145.783 19.376 146.085 19.1393C146.385 18.9002 146.759 18.7803 147.206 18.7803C147.693 18.7803 148.081 18.9064 148.37 19.1594C148.657 19.4117 148.8 19.7526 148.8 20.1813V23.0775H148.303V22.2647H148.291C148.175 22.5226 147.986 22.7304 147.723 22.888C147.457 23.0461 147.161 23.1246 146.835 23.1246Z" fill="#F4F4F4"/>
<path fill-rule="evenodd" clip-rule="evenodd" d="M155.094 23.0777H154.407L152.502 20.9981H152.478V23.0777H151.961V20.9981H151.937L150.032 23.0777H149.361L151.416 20.86L149.424 18.8281H150.082L151.937 20.7414H151.961V18.8281H152.478V20.7414H152.502L154.357 18.8281H155.011L153.026 20.8481L155.094 23.0777Z" fill="#F4F4F4"/>
<path fill-rule="evenodd" clip-rule="evenodd" d="M155.705 23.0777V18.8281H156.223V22.2648H156.246L158.661 18.8281H159.178V23.0777H158.661V19.641H158.634L156.223 23.0777H155.705Z" fill="#F4F4F4"/>
<path fill-rule="evenodd" clip-rule="evenodd" d="M20.492 15.872L20.5536 15.6258L22.338 21.1021L22.1226 21.4098V21.379L22.0611 21.5021C16.9232 28.332 6.03218 27.0091 2.00188 20.0561C-2.27454 12.6723 2.06341 2.91967 10.4317 1.16603C11.2931 1.01221 12.1853 0.919909 13.0775 0.919909C17.0463 0.919909 21.2304 2.64278 23.3532 6.11928L25.0146 1.59675H30.1832L26.276 12.457L28.7987 19.4715C29.0756 20.1791 29.8448 20.5791 30.5524 20.3945L30.7677 20.333L32.1522 24.9786L30.4908 25.4093C28.1219 25.9938 25.6914 24.794 24.7992 22.5173C24.5839 22.1174 24.3685 21.6867 24.2147 21.2252L23.2917 18.7947L23.2302 18.7024V18.6716L21.1689 12.4262C20.0305 8.98048 17.9077 7.31914 16.2156 6.6423C15.2926 6.21158 14.2466 5.99622 13.139 5.99622C8.86262 5.99622 5.41687 9.4112 5.41687 13.5953C5.41687 17.7794 8.86262 21.1944 13.139 21.1944C16.5848 21.1944 19.5075 18.9485 20.492 15.872Z" fill="#CAEFFF"/>
</svg>
