<svg width="48" height="48" viewBox="0 0 48 48" fill="none" xmlns="http://www.w3.org/2000/svg">
<rect x="4" y="4" width="40" height="40" rx="20" fill="#295985"/>
<path d="M28.6272 12.5322H19.3729C15.6119 12.5322 12.5522 15.5919 12.5522 19.3529V28.6071C12.5522 32.3679 15.6119 35.4279 19.3729 35.4279H28.6272C32.388 35.4279 35.4479 32.3681 35.4479 28.6071V19.3529C35.4479 15.5919 32.3881 12.5322 28.6272 12.5322ZM33.1446 28.6072C33.1446 31.1021 31.1221 33.1246 28.6272 33.1246H19.3729C16.8781 33.1246 14.8556 31.1021 14.8556 28.6072V19.3529C14.8556 16.8581 16.8781 14.8355 19.3729 14.8355H28.6272C31.1221 14.8355 33.1446 16.8582 33.1446 19.3529V28.6072Z" fill="white"/>
<path d="M24.0001 18.0581C20.7349 18.0581 18.0784 20.7147 18.0784 23.9798C18.0784 27.2447 20.7349 29.9013 24.0001 29.9013C27.2652 29.9013 29.9216 27.245 29.9216 23.9798C29.9216 20.7147 27.2652 18.0581 24.0001 18.0581ZM24.0001 27.598C22.0017 27.598 20.3817 25.9783 20.3817 23.9798C20.3817 21.9814 22.0017 20.3614 24.0001 20.3614C25.9984 20.3614 27.6183 21.9813 27.6183 23.9798C27.6183 25.9782 25.9984 27.598 24.0001 27.598Z" fill="white"/>
</svg>
