<svg width="48" height="48" viewBox="0 0 48 48" fill="none" xmlns="http://www.w3.org/2000/svg">
<path d="M40 15H9V34H40V15Z" fill="white"/>
<path d="M23.9925 4.02197C12.9513 4.02197 4 12.9729 4 24.0145C4 35.0561 12.9513 44.007 23.9925 44.007C35.0337 44.007 43.985 35.0561 43.985 24.0145C43.985 12.9729 35.0337 4.02197 23.9925 4.02197ZM34.1338 26.1767C35.0656 27.0869 36.0514 27.9434 36.8879 28.9477C37.2585 29.3919 37.6079 29.8513 37.8738 30.3679C38.2534 31.1046 37.9106 31.9125 37.2512 31.9563L33.1553 31.9554C32.0975 32.043 31.2557 31.6163 30.546 30.8931C29.9794 30.3168 29.4538 29.7011 28.9081 29.1051C28.6852 28.8605 28.4504 28.6302 28.1706 28.449C27.6122 28.0858 27.1271 28.1971 26.8072 28.7804C26.4812 29.3739 26.4068 30.0317 26.3757 30.6923C26.3311 31.6581 26.0398 31.9104 25.0708 31.9558C23.0002 32.0528 21.0355 31.7386 19.2094 30.6947C17.5986 29.774 16.3518 28.4744 15.2653 27.003C13.1497 24.1347 11.5295 20.9867 10.0736 17.7482C9.74598 17.0188 9.98569 16.6286 10.7903 16.6135C12.1271 16.5877 13.4639 16.591 14.8007 16.6122C15.3447 16.6208 15.7047 16.9321 15.9137 17.4455C16.6361 19.2228 17.5217 20.9138 18.6315 22.4822C18.9272 22.8998 19.2291 23.3162 19.659 23.6111C20.1335 23.9368 20.4951 23.8292 20.7189 23.2994C20.862 22.9628 20.9238 22.6028 20.9549 22.242C21.0612 21.0063 21.0739 19.771 20.8898 18.5401C20.7753 17.7699 20.3421 17.2725 19.5743 17.1268C19.1833 17.0528 19.2405 16.908 19.4307 16.6846C19.7609 16.2985 20.0701 16.0596 20.6882 16.0596L25.3158 16.0588C26.0451 16.202 26.2088 16.5292 26.3078 17.2639L26.3119 22.4065C26.3033 22.6908 26.4546 23.5334 26.9651 23.7195C27.3742 23.8545 27.6441 23.5265 27.8888 23.2675C28.9985 22.0899 29.7892 20.6999 30.4973 19.2613C30.8098 18.6268 31.0794 17.9703 31.3412 17.3125C31.5359 16.8262 31.8386 16.5869 32.3875 16.5951L36.8438 16.6004C36.9751 16.6004 37.1084 16.6016 37.2385 16.6241C37.9895 16.7525 38.1953 17.0757 37.9629 17.8083C37.5972 18.9594 36.8867 19.9182 36.1921 20.8795C35.4477 21.9087 34.6537 22.9018 33.9166 23.9355C33.2392 24.8804 33.2928 25.3562 34.1338 26.1767Z" fill="#295985"/>
</svg>
