<svg width="48" height="48" viewBox="0 0 48 48" fill="none" xmlns="http://www.w3.org/2000/svg">
<path d="M24.0002 3.97998C12.9544 3.97998 4.00012 12.9342 4.00012 23.98C4.00012 35.0258 12.9544 43.98 24.0002 43.98C35.046 43.98 44.0002 35.0258 44.0002 23.98C44.0002 12.9342 35.046 3.97998 24.0002 3.97998Z" fill="#295985"/>
<path d="M33.7319 15.485L30.1597 33.4955C30.1597 33.4955 29.6602 34.7446 28.2862 34.145L20.0428 27.825L17.0453 26.3763L11.9993 24.6775C11.9993 24.6775 11.225 24.4028 11.15 23.8033C11.0751 23.2038 12.0243 22.8791 12.0243 22.8791L32.0831 15.0103C32.0831 15.0103 33.7319 14.2859 33.7319 15.485Z" fill="white"/>
<path d="M19.4092 33.2933C19.4092 33.2933 19.1686 33.2708 18.8687 32.3214C18.569 31.3722 17.0453 26.3762 17.0453 26.3762L29.1605 18.6825C29.1605 18.6825 29.86 18.2576 29.835 18.6825C29.835 18.6825 29.9599 18.7573 29.5852 19.107C29.2105 19.4568 20.0678 27.6751 20.0678 27.6751" fill="#D2E5F1"/>
<path d="M23.2036 30.248L19.9429 33.2209C19.9429 33.2209 19.6881 33.4143 19.4092 33.293L20.0336 27.771" fill="#B5CFE4"/>
</svg>
