<svg width="20" height="20" viewBox="0 0 20 20" fill="none" xmlns="http://www.w3.org/2000/svg">
<path d="M6.61392 1.66064L17.5465 12.5932C17.5575 12.6042 17.5684 12.6151 17.5793 12.626C17.7418 12.7881 17.8856 12.9316 17.987 13.1106C18.0883 13.2897 18.1374 13.4868 18.1928 13.7096C18.1965 13.7245 18.2003 13.7395 18.204 13.7546L19.283 18.0703C19.2852 18.0791 19.2874 18.088 19.2896 18.097C19.3289 18.2536 19.3708 18.421 19.3845 18.5615C19.3997 18.7162 19.3961 18.9773 19.1867 19.1867C18.9773 19.3961 18.7163 19.3997 18.5615 19.3845C18.421 19.3708 18.2537 19.3289 18.097 19.2896C18.0881 19.2874 18.0792 19.2852 18.0703 19.2829L13.7546 18.204C13.7395 18.2002 13.7245 18.1965 13.7096 18.1928C13.4869 18.1374 13.2897 18.0883 13.1107 17.9869C12.9316 17.8856 12.7881 17.7417 12.626 17.5793C12.6151 17.5684 12.6042 17.5575 12.5932 17.5464L1.66066 6.6139L1.63737 6.59061C1.32393 6.27721 1.05388 6.00718 0.866701 5.76186C0.666101 5.49894 0.514212 5.20652 0.514212 4.84613C0.514212 4.48574 0.6661 4.19332 0.866699 3.9304C1.05388 3.68508 1.32393 3.41505 1.63737 3.10165L1.66066 3.07836L3.07839 1.66064L3.10166 1.63736C3.41506 1.32392 3.6851 1.05386 3.93042 0.866678C4.19334 0.666078 4.48577 0.514189 4.84615 0.514189C5.20654 0.514189 5.49896 0.666078 5.76188 0.866679C6.00721 1.05386 6.27725 1.32393 6.59066 1.63738L6.61392 1.66064Z" stroke="#213170"/>
<path d="M8.34741 2.53687L2.53689 8.34739" stroke="#213170"/>
</svg>
