<svg width="97" height="30" viewBox="0 0 97 30" fill="none" xmlns="http://www.w3.org/2000/svg">
<path d="M10.9357 10.9258L9.42149 12.4201C9.00256 11.9446 8.48715 11.5635 7.90944 11.3019C7.33172 11.0403 6.70489 10.9042 6.07049 10.9027C5.55431 10.8892 5.04072 10.98 4.5606 11.1696C4.08048 11.3593 3.64374 11.6438 3.27664 12.0062C2.91328 12.3513 2.6256 12.7678 2.4318 13.2295C2.23799 13.6912 2.14228 14.1879 2.1507 14.6884C2.14173 15.2053 2.24104 15.7184 2.44227 16.1948C2.6435 16.6712 2.94221 17.1004 3.31927 17.4549C3.69916 17.827 4.15009 18.1191 4.64528 18.3139C5.14047 18.5087 5.66983 18.6023 6.20194 18.589C6.85983 18.6108 7.51074 18.4489 8.08141 18.1215C8.6289 17.7663 9.05834 17.2569 9.31523 16.6578H6.044V14.6425H11.7267L11.7418 15.1176C11.7416 16.1041 11.4765 17.0726 10.9741 17.9223C10.5051 18.7626 9.81805 19.4614 8.98514 19.9454C8.10875 20.4259 7.12055 20.6665 6.12087 20.6427C5.02694 20.6621 3.9465 20.3994 2.98401 19.8802C2.06735 19.3744 1.31166 18.6217 0.803192 17.7078C0.271797 16.7819 -0.00508489 15.7324 0.00056521 14.6654C-0.0197892 13.2268 0.510279 11.8346 1.48276 10.7725C2.05285 10.1277 2.75883 9.61673 3.5501 9.27624C4.34136 8.93576 5.1983 8.77418 6.0595 8.8031C7.00589 8.79583 7.94385 8.98095 8.81622 9.34718C9.62631 9.7184 10.3486 10.2564 10.9357 10.9258Z" fill="#213170"/>
<path d="M21.5219 16.7958H14.7873C14.8618 17.3474 15.1397 17.8515 15.5666 18.2096C16.0253 18.5719 16.5988 18.7581 17.1832 18.7346C17.5577 18.7399 17.9295 18.6701 18.2764 18.5293C18.6234 18.3884 18.9384 18.1794 19.2028 17.9147L20.969 18.7423C20.5688 19.3307 20.0241 19.807 19.387 20.1255C18.7012 20.4395 17.9526 20.5928 17.1984 20.5737C16.6083 20.5965 16.0197 20.4985 15.469 20.2857C14.9183 20.0728 14.4171 19.7497 13.9963 19.3362C13.5895 18.9308 13.27 18.4467 13.0574 17.9137C12.8448 17.3806 12.7435 16.8099 12.7599 16.2364C12.7419 15.6527 12.8417 15.0714 13.0535 14.527C13.2652 13.9826 13.5845 13.4863 13.9924 13.0676C14.3917 12.6548 14.8727 12.3296 15.4049 12.1125C15.9371 11.8955 16.5087 11.7914 17.0834 11.807C17.6767 11.7842 18.2683 11.8845 18.8208 12.1015C19.3733 12.3184 19.8746 12.6474 20.2933 13.0676C20.7122 13.5118 21.0374 14.0354 21.2498 14.6074C21.4622 15.1793 21.5574 15.788 21.5297 16.3974L21.5219 16.7958ZM19.4254 15.1482C19.2902 14.6879 19.0011 14.2877 18.6063 14.0141C18.1922 13.7209 17.6948 13.5678 17.1871 13.5772C16.6342 13.5671 16.0934 13.7395 15.6487 14.0676C15.3074 14.3595 15.0433 14.7306 14.8793 15.1482L19.4254 15.1482Z" fill="#213170"/>
<path d="M22.9059 12.0217H25.0024V12.876C25.3876 12.5333 25.8233 12.2519 26.2944 12.0417C26.6702 11.8872 27.0726 11.8074 27.4791 11.807C27.8712 11.7998 28.2607 11.8729 28.6234 12.0219C28.9861 12.1708 29.3144 12.3924 29.5879 12.6729C30.0733 13.1635 30.3161 13.889 30.3162 14.8494V20.3592H28.2429V16.7081C28.2698 16.0444 28.2248 15.3797 28.1086 14.7256C28.0403 14.4319 27.8758 14.1693 27.6412 13.9793C27.4037 13.8034 27.1135 13.713 26.8179 13.7229C26.4122 13.7158 26.02 13.8684 25.7262 14.1477C25.4023 14.4673 25.1821 14.8766 25.0941 15.3226C25.013 15.8826 24.9823 16.4487 25.0024 17.0141V20.3592H22.9059V12.0217Z" fill="#213170"/>
<path d="M40.4574 16.7958H33.7228C33.7973 17.3474 34.0752 17.8515 34.5022 18.2096C34.9608 18.5719 35.5343 18.7581 36.1187 18.7346C36.4933 18.7399 36.865 18.6701 37.212 18.5293C37.5589 18.3884 37.874 18.1794 38.1384 17.9147L39.9045 18.7423C39.5043 19.3307 38.9596 19.807 38.3225 20.1255C37.6368 20.4395 36.8882 20.5928 36.1339 20.5737C35.5438 20.5965 34.9552 20.4985 34.4045 20.2857C33.8538 20.0728 33.3526 19.7497 32.9318 19.3362C32.525 18.9308 32.2055 18.4467 31.9929 17.9137C31.7803 17.3806 31.6791 16.8099 31.6954 16.2364C31.6774 15.6527 31.7773 15.0714 31.989 14.527C32.2008 13.9826 32.5201 13.4863 32.9279 13.0676C33.3272 12.6548 33.8083 12.3296 34.3404 12.1125C34.8726 11.8955 35.4443 11.7914 36.0189 11.807C36.6122 11.7842 37.2038 11.8845 37.7563 12.1015C38.3088 12.3184 38.8102 12.6474 39.2288 13.0676C39.6477 13.5118 39.973 14.0354 40.1854 14.6074C40.3977 15.1793 40.4929 15.788 40.4652 16.3974L40.4574 16.7958ZM38.3609 15.1482C38.2257 14.6879 37.9367 14.2877 37.5418 14.0141C37.1277 13.7209 36.6303 13.5678 36.1226 13.5772C35.5697 13.5671 35.0289 13.7395 34.5842 14.0676C34.243 14.3595 33.9788 14.7306 33.8149 15.1482L38.3609 15.1482Z" fill="#213170"/>
<path d="M42.0337 8.94861H44.1299V12.0216H45.3741V13.8225H44.1299V20.3592H42.0337V13.8225H40.9585V12.0217H42.0337L42.0337 8.94861Z" fill="#213170"/>
<path d="M47.2609 8.58835C47.4376 8.5862 47.6128 8.62048 47.7755 8.68907C47.9382 8.75765 48.085 8.85905 48.2066 8.98691C48.3345 9.1128 48.4353 9.26329 48.5031 9.42927C48.5709 9.59524 48.6042 9.77322 48.601 9.95243C48.604 10.1296 48.571 10.3055 48.5039 10.4695C48.4368 10.6335 48.3369 10.7822 48.2105 10.9065C48.0904 11.0329 47.9455 11.1333 47.7848 11.2012C47.624 11.2691 47.451 11.3031 47.2764 11.3012C47.0982 11.3038 46.9214 11.2694 46.7573 11.2001C46.5931 11.1308 46.4452 11.0282 46.323 10.8988C46.1948 10.7708 46.0937 10.6183 46.026 10.4504C45.9582 10.2825 45.9251 10.1027 45.9286 9.92179C45.9283 9.56873 46.0685 9.22999 46.3183 8.97997C46.5681 8.72995 46.9071 8.5891 47.2609 8.58835ZM46.2128 12.0216H48.309V20.3591H46.2128V12.0216Z" fill="#213170"/>
<path d="M58.1917 13.7077L56.4466 14.6654C56.1749 14.3639 55.8438 14.1213 55.4741 13.9528C55.1155 13.813 54.7328 13.7453 54.3479 13.7536C54 13.7385 53.6526 13.7926 53.3258 13.9128C52.9991 14.033 52.6996 14.2168 52.4448 14.4537C52.2049 14.6855 52.0163 14.965 51.8911 15.274C51.766 15.583 51.7072 15.9148 51.7184 16.2479C51.7068 16.5701 51.7631 16.8912 51.8836 17.1903C52.0041 17.4895 52.1862 17.7601 52.418 17.9847C52.6643 18.2129 52.9536 18.3899 53.269 18.5055C53.5845 18.6211 53.9198 18.6729 54.2555 18.658C54.6702 18.6793 55.0842 18.6038 55.4645 18.4375C55.8449 18.2712 56.1811 18.0187 56.4466 17.7001L58.0997 18.8297C57.2037 19.9925 55.9392 20.5738 54.3062 20.5738C52.8369 20.5738 51.6863 20.1396 50.8544 19.2711C50.3769 18.7907 50.0188 18.2053 49.8087 17.5619C49.5986 16.9185 49.5425 16.235 49.6448 15.5661C49.747 14.8971 50.0048 14.2614 50.3976 13.7098C50.7903 13.1581 51.3071 12.706 51.9064 12.3895C52.6549 11.9953 53.4906 11.7951 54.3369 11.807C55.1103 11.7945 55.8759 11.9638 56.5716 12.3013C57.2236 12.6237 57.7815 13.108 58.1917 13.7077Z" fill="#213170"/>
<path d="M76.6648 8.8031H78.761V20.3592H76.6648L76.6648 8.8031Z" fill="#213170"/>
<path d="M81.4847 8.58835C81.6613 8.5862 81.8365 8.62048 81.9992 8.68907C82.162 8.75765 82.3088 8.85905 82.4304 8.98691C82.5582 9.1128 82.6591 9.26329 82.7269 9.42926C82.7947 9.59524 82.828 9.77322 82.8248 9.95243C82.8278 10.1296 82.7948 10.3055 82.7276 10.4695C82.6605 10.6335 82.5607 10.7822 82.4343 10.9065C82.3142 11.0329 82.1692 11.1333 82.0085 11.2012C81.8478 11.2691 81.6747 11.3031 81.5002 11.3012C81.322 11.3038 81.1452 11.2694 80.981 11.2001C80.8169 11.1308 80.669 11.0282 80.5467 10.8988C80.4185 10.7708 80.3175 10.6183 80.2497 10.4504C80.182 10.2825 80.1489 10.1027 80.1524 9.92179C80.1521 9.56873 80.2922 9.22999 80.542 8.97997C80.7919 8.72995 81.1309 8.5891 81.4847 8.58835ZM80.4366 12.0216H82.5328V20.3591H80.4366V12.0216Z" fill="#213170"/>
<path d="M83.5571 12.0217H84.302C84.3071 10.9284 84.3251 10.282 84.3559 10.0827C84.375 9.87143 84.4361 9.66603 84.5356 9.47856C84.6352 9.29108 84.7712 9.12529 84.9357 8.99086C85.3421 8.69901 85.8374 8.5568 86.3371 8.58845C86.8422 8.60215 87.3411 8.7033 87.8115 8.8874V10.4813C87.5702 10.4046 87.3195 10.3608 87.0664 10.3511C86.8745 10.3346 86.6832 10.3891 86.529 10.5043C86.4287 10.6412 86.3847 10.8112 86.4062 10.9794L86.3985 12.0217H87.7269V13.7919H86.3985V20.3592H84.302V13.7919H83.5571V12.0217Z" fill="#213170"/>
<path d="M96.9875 16.7958H90.2528C90.3274 17.3474 90.6052 17.8515 91.0322 18.2096C91.4908 18.5719 92.0644 18.7581 92.6488 18.7346C93.0233 18.7399 93.3951 18.6701 93.742 18.5293C94.0889 18.3884 94.404 18.1794 94.6684 17.9147L96.4345 18.7423C96.0343 19.3307 95.4897 19.807 94.8525 20.1255C94.1668 20.4395 93.4182 20.5928 92.664 20.5737C92.0738 20.5965 91.4853 20.4985 90.9346 20.2857C90.3839 20.0728 89.8827 19.7497 89.4619 19.3362C89.0551 18.9308 88.7356 18.4467 88.523 17.9137C88.3103 17.3806 88.2091 16.8099 88.2255 16.2364C88.2075 15.6527 88.3073 15.0714 88.519 14.527C88.7308 13.9826 89.0501 13.4863 89.458 13.0676C89.8573 12.6548 90.3383 12.3296 90.8705 12.1125C91.4026 11.8955 91.9743 11.7914 92.549 11.807C93.1423 11.7842 93.7338 11.8845 94.2863 12.1015C94.8388 12.3184 95.3402 12.6474 95.7588 13.0676C96.1777 13.5118 96.503 14.0354 96.7154 14.6074C96.9278 15.1793 97.0229 15.788 96.9952 16.3974L96.9875 16.7958ZM94.891 15.1482C94.7558 14.6879 94.4667 14.2877 94.0719 14.0141C93.6577 13.7209 93.1604 13.5678 92.6527 13.5772C92.0997 13.5671 91.5589 13.7395 91.1143 14.0676C90.773 14.3595 90.5088 14.7306 90.3449 15.1482L94.891 15.1482Z" fill="#213170"/>
<path d="M66.2878 29.3312C66.3454 29.2025 66.3762 29.0636 66.3785 28.9227C66.3807 28.7818 66.3543 28.642 66.3009 28.5116C66.2475 28.3811 66.1682 28.2629 66.0677 28.1639C65.9672 28.0649 65.8477 27.9873 65.7163 27.9357C65.586 27.8804 65.446 27.8515 65.3045 27.8505C65.1629 27.8495 65.0225 27.8765 64.8914 27.9299C64.7604 27.9834 64.6412 28.0622 64.5408 28.1618C64.4404 28.2615 64.3608 28.38 64.3066 28.5105C64.2523 28.641 64.2245 28.7809 64.2247 28.9222C64.225 29.0635 64.2532 29.2034 64.3079 29.3337C64.3626 29.464 64.4426 29.5823 64.5433 29.6816C64.644 29.7809 64.7634 29.8593 64.8946 29.9123C65.0239 29.9689 65.1634 29.9987 65.3045 30C65.4457 30.0012 65.5857 29.9738 65.7159 29.9195C65.8462 29.8652 65.964 29.785 66.0623 29.6839C66.1606 29.5827 66.2373 29.4628 66.2878 29.3312Z" fill="#213170"/>
<path d="M68.4567 2.0646C68.5871 2.11969 68.7272 2.14845 68.8688 2.14924C69.0104 2.15002 69.1507 2.1228 69.2818 2.06915C69.4128 2.01551 69.5318 1.9365 69.6321 1.83668C69.7323 1.73687 69.8117 1.61822 69.8658 1.48761C69.9198 1.35699 69.9474 1.21698 69.9469 1.07567C69.9465 0.934354 69.9179 0.794533 69.863 0.664277C69.8081 0.534021 69.7279 0.41591 69.627 0.316764C69.5261 0.217618 69.4065 0.1394 69.2751 0.0866256C69.144 0.0296805 69.0026 0.000197341 68.8596 9.87263e-07C68.7166 -0.000195366 68.5751 0.0288993 68.4439 0.0854841C68.3126 0.142069 68.1944 0.224939 68.0965 0.328965C67.9986 0.43299 67.9232 0.555957 67.8749 0.690252C67.821 0.818434 67.7934 0.956061 67.7936 1.09505C67.7938 1.23404 67.8218 1.37159 67.876 1.49962C67.9302 1.62765 68.0095 1.74358 68.1092 1.8406C68.209 1.93762 68.3271 2.01378 68.4567 2.0646Z" fill="#213170"/>
<path d="M67.1797 14.7333C66.1836 14.3213 65.1876 13.9093 64.1915 13.4974C63.9466 13.3963 63.7918 13.4982 63.7803 13.7631C63.7766 13.7881 63.781 13.8137 63.7927 13.8361C63.8045 13.8585 63.8231 13.8766 63.8458 13.8878C63.8843 13.9076 63.9236 13.9262 63.9636 13.9428C65.9757 14.7755 67.9873 15.6092 69.9985 16.4439C70.1883 16.5231 70.2672 16.4729 70.3416 16.2979C70.4193 16.115 70.3539 16.0425 70.189 15.9752C69.1841 15.5655 68.1824 15.1481 67.1797 14.7333Z" fill="#213170"/>
<path d="M66.8149 26.9408C66.868 26.8185 66.8963 26.6869 66.8981 26.5536C66.8999 26.4203 66.8753 26.288 66.8257 26.1642C66.776 26.0405 66.7023 25.9278 66.6087 25.8326C66.5152 25.7375 66.4037 25.6617 66.2807 25.6098C66.1577 25.5578 66.0256 25.5307 65.892 25.5299C65.7585 25.5292 65.6261 25.5548 65.5025 25.6054C65.3789 25.656 65.2666 25.7304 65.172 25.8245C65.0774 25.9186 65.0024 26.0305 64.9513 26.1537C64.8975 26.2762 64.8685 26.4081 64.8661 26.5418C64.8638 26.6755 64.888 26.8084 64.9375 26.9327C64.987 27.057 65.0608 27.1702 65.1545 27.2658C65.2482 27.3614 65.36 27.4375 65.4835 27.4896C65.6069 27.5417 65.7395 27.5689 65.8735 27.5695C66.0075 27.57 66.1403 27.544 66.2642 27.493C66.388 27.4419 66.5005 27.3668 66.5951 27.272C66.6896 27.1772 66.7643 27.0647 66.8149 26.9408Z" fill="#213170"/>
<path d="M69.2266 3.61482C69.2783 3.4915 69.305 3.35916 69.3051 3.22548C69.3052 3.09179 69.2786 2.95942 69.227 2.83604C69.1755 2.71266 69.0998 2.60073 69.0046 2.50675C68.9093 2.41276 68.7963 2.33859 68.6721 2.28854C68.5478 2.23848 68.4149 2.21354 68.281 2.21516C68.147 2.21678 68.0147 2.24493 67.8917 2.29797C67.7688 2.35101 67.6576 2.42789 67.5646 2.52415C67.4717 2.62041 67.3988 2.73414 67.3502 2.85873C67.2992 2.98191 67.2732 3.11394 67.2736 3.24722C67.274 3.3805 67.3008 3.51238 67.3525 3.63526C67.4042 3.75813 67.4798 3.86958 67.5749 3.96316C67.67 4.05675 67.7827 4.13062 67.9065 4.18052C68.0304 4.23042 68.1629 4.25537 68.2964 4.25391C68.43 4.25245 68.5619 4.22463 68.6846 4.17204C68.8073 4.11945 68.9184 4.04314 69.0114 3.9475C69.1044 3.85186 69.1776 3.7388 69.2266 3.61482Z" fill="#213170"/>
<path d="M68.6847 4.5763C68.4523 4.47943 68.1912 4.4773 67.9573 4.57035C67.7233 4.66341 67.5353 4.84424 67.4334 5.07407C67.3529 5.25054 67.3271 5.44703 67.3594 5.63825C67.3916 5.82948 67.4805 6.00668 67.6146 6.14707C67.7487 6.28745 67.9217 6.38458 68.1116 6.42597C68.3014 6.46735 68.4993 6.4511 68.6798 6.37929C68.8603 6.30748 69.0152 6.18341 69.1244 6.02304C69.2337 5.86267 69.2923 5.67334 69.2929 5.47942C69.2934 5.2855 69.2357 5.09587 69.1274 4.93492C69.019 4.77397 68.8648 4.64907 68.6847 4.5763Z" fill="#213170"/>
<path d="M66.2159 23.3338C66.099 23.2843 65.9735 23.2584 65.8465 23.2575C65.7195 23.2565 65.5936 23.2807 65.476 23.3285C65.3584 23.3762 65.2515 23.4467 65.1613 23.5359C65.071 23.6251 64.9994 23.7312 64.9504 23.8481C64.9014 23.9649 64.876 24.0904 64.8757 24.2171C64.8755 24.3438 64.9003 24.4693 64.9487 24.5864C64.9972 24.7035 65.0684 24.8099 65.1582 24.8995C65.248 24.989 65.3547 25.06 65.4721 25.1083C65.7065 25.2095 65.9716 25.2139 66.2093 25.1206C66.447 25.0273 66.6381 24.8439 66.7407 24.6105C66.7904 24.4923 66.8162 24.3655 66.8167 24.2373C66.8172 24.1091 66.7924 23.9821 66.7436 23.8635C66.6949 23.745 66.6232 23.6371 66.5326 23.5462C66.4421 23.4553 66.3344 23.3832 66.2159 23.3338Z" fill="#213170"/>
<path d="M65.5931 11.6269C65.3532 11.4867 65.3345 11.691 65.2604 11.7806C65.1735 11.8857 65.1784 11.9818 65.3148 12.0628C65.805 12.3537 66.2908 12.652 66.7779 12.948C67.7153 13.5174 68.6525 14.0872 69.5896 14.6572C69.8896 14.8399 69.8786 14.8358 70.0506 14.5629C70.1459 14.4117 70.0854 14.3502 69.9625 14.2761C68.9307 13.6536 67.9 13.0292 66.8705 12.4029C66.4325 12.1372 65.9947 11.8709 65.5931 11.6269Z" fill="#213170"/>
<path d="M69.047 17.6071C69.1525 17.3077 69.1355 17.2716 68.8336 17.1975C67.2351 16.805 65.6364 16.4138 64.0374 16.0238C63.7646 15.9573 63.6169 16.0923 63.6501 16.3694C63.6658 16.5002 63.7824 16.4898 63.8649 16.5104C64.5862 16.6907 65.3089 16.8652 66.0312 17.0417C66.9498 17.266 67.8688 17.4891 68.7866 17.7166C68.9162 17.7488 69.0176 17.7532 69.047 17.6071Z" fill="#213170"/>
<path d="M65.9701 22.431C66.0163 22.3206 66.0401 22.2021 66.04 22.0825C66.04 21.9628 66.016 21.8444 65.9696 21.7341C65.9232 21.6238 65.8553 21.5238 65.7698 21.4399C65.6842 21.356 65.5828 21.29 65.4715 21.2457C65.3601 21.2013 65.2411 21.1795 65.1212 21.1815C65.0013 21.1836 64.883 21.2094 64.7733 21.2575C64.6635 21.3056 64.5644 21.375 64.4818 21.4617C64.3991 21.5484 64.3346 21.6506 64.292 21.7625C64.2031 21.9816 64.2031 22.2267 64.2922 22.4458C64.3812 22.6649 64.5523 22.8408 64.7691 22.9362C64.8811 22.9818 65.0012 23.005 65.1222 23.0043C65.2433 23.0036 65.363 22.9791 65.4746 22.9322C65.5861 22.8853 65.6873 22.8168 65.7724 22.7308C65.8574 22.6448 65.9246 22.5429 65.9701 22.431Z" fill="#213170"/>
<path d="M69.8749 7.93998C69.9226 7.82945 69.9477 7.7105 69.9487 7.59015C69.9497 7.46979 69.9265 7.35045 69.8805 7.23918C69.8345 7.1279 69.7667 7.02693 69.681 6.94222C69.5954 6.85751 69.4935 6.79077 69.3816 6.74593C69.2697 6.7011 69.1499 6.67908 69.0293 6.68117C68.9087 6.68325 68.7898 6.70941 68.6795 6.75809C68.5692 6.80677 68.4697 6.877 68.387 6.96462C68.3044 7.05225 68.2401 7.1555 68.198 7.26831C68.1533 7.37828 68.1308 7.49599 68.1317 7.61467C68.1327 7.73335 68.1572 7.85068 68.2037 7.95991C68.2502 8.06914 68.3178 8.16814 68.4028 8.25121C68.4877 8.33429 68.5883 8.39981 68.6986 8.44402C68.809 8.48823 68.927 8.51026 69.046 8.50884C69.1649 8.50742 69.2824 8.48259 69.3916 8.43576C69.5009 8.38893 69.5999 8.32103 69.6828 8.23595C69.7657 8.15087 69.831 8.05029 69.8749 7.93998Z" fill="#213170"/>
<path d="M74.7399 3.12634C73.3063 2.78728 71.877 2.43019 70.4474 2.07454C70.2864 2.03447 70.179 2.04806 70.1537 2.2361C70.1365 2.36396 70.0464 2.51325 70.2615 2.56375C71.2927 2.81545 72.324 3.06716 73.3553 3.31886C73.7692 3.4199 74.1849 3.51447 74.5962 3.62524" fill="#213170"/>
<path d="M70.7793 8.71944C70.6767 8.67343 70.5659 8.64865 70.4535 8.64662C70.3411 8.64459 70.2294 8.66534 70.1253 8.70762C70.0211 8.7499 69.9267 8.81283 69.8476 8.8926C69.7686 8.97237 69.7065 9.06732 69.6653 9.1717C69.621 9.27578 69.5978 9.38759 69.5971 9.50067C69.5963 9.61375 69.6181 9.72585 69.661 9.83049C69.704 9.93512 69.7673 10.0302 69.8473 10.1103C69.9274 10.1903 70.0225 10.2538 70.1273 10.2969C70.232 10.34 70.3443 10.362 70.4576 10.3615C70.5709 10.361 70.683 10.3382 70.7874 10.2942C70.8918 10.2502 70.9864 10.186 71.0658 10.1053C71.1452 10.0246 71.2077 9.92899 71.2498 9.82401C71.2943 9.72096 71.3173 9.60999 71.3176 9.4978C71.3178 9.38562 71.2953 9.27454 71.2513 9.1713C71.2073 9.06806 71.1428 8.97478 71.0617 8.89712C70.9805 8.81945 70.8845 8.75901 70.7793 8.71944Z" fill="#213170"/>
<path d="M63.3953 20.9725C63.498 21.0181 63.6089 21.0424 63.7213 21.0439C63.8337 21.0455 63.9453 21.0243 64.0493 20.9816C64.1532 20.939 64.2474 20.8757 64.3262 20.7956C64.405 20.7156 64.4666 20.6204 64.5075 20.5159C64.5515 20.4117 64.5743 20.2998 64.5746 20.1867C64.5749 20.0736 64.5527 19.9615 64.5094 19.857C64.466 19.7526 64.4023 19.6577 64.322 19.5779C64.2416 19.4982 64.1462 19.4351 64.0413 19.3924C63.9364 19.3496 63.824 19.3281 63.7107 19.329C63.5973 19.3299 63.4853 19.3532 63.3811 19.3976C63.2769 19.442 63.1825 19.5066 63.1034 19.5876C63.0244 19.6687 62.9622 19.7646 62.9205 19.8697C62.8765 19.9729 62.8538 20.084 62.854 20.1962C62.8542 20.3084 62.8771 20.4194 62.9215 20.5225C62.9659 20.6255 63.0308 20.7186 63.1122 20.7959C63.1936 20.8733 63.2899 20.9333 63.3953 20.9725Z" fill="#213170"/>
<path d="M70.7915 11.2211C70.7498 11.3172 70.7279 11.4207 70.7271 11.5255C70.7263 11.6302 70.7465 11.7341 70.7867 11.8308C70.8269 11.9276 70.8862 12.0153 70.961 12.0888C71.0358 12.1623 71.1247 12.22 71.2223 12.2586C71.3197 12.3021 71.4249 12.3257 71.5317 12.3281C71.6385 12.3305 71.7446 12.3115 71.8439 12.2723C71.9432 12.2331 72.0336 12.1744 72.1099 12.0998C72.1861 12.0252 72.2467 11.9361 72.2879 11.8378C72.3693 11.6399 72.3686 11.4179 72.2862 11.2204C72.2037 11.023 72.0461 10.8662 71.848 10.7846C71.6499 10.7029 71.4274 10.703 71.2293 10.7848C71.0313 10.8667 70.8738 11.0235 70.7915 11.2211Z" fill="#213170"/>
<path d="M62.9491 17.4323C62.8516 17.3888 62.7464 17.3652 62.6396 17.3629C62.5329 17.3605 62.4267 17.3796 62.3274 17.4188C62.2282 17.458 62.1377 17.5167 62.0615 17.5913C61.9853 17.6659 61.9248 17.755 61.8836 17.8534C61.8028 18.0512 61.8038 18.2729 61.8865 18.47C61.9691 18.6671 62.1266 18.8235 62.3245 18.905C62.5223 18.9865 62.7445 18.9864 62.9424 18.9048C63.1402 18.8233 63.2977 18.6668 63.3802 18.4697C63.4218 18.3735 63.4437 18.27 63.4445 18.1652C63.4453 18.0605 63.4249 17.9567 63.3847 17.8599C63.3445 17.7631 63.2852 17.6754 63.2104 17.602C63.1356 17.5285 63.0467 17.4708 62.9491 17.4323Z" fill="#213170"/>
<path d="M64.3016 18.4419C64.1833 18.7476 64.2211 18.8175 64.5382 18.8773C65.6101 19.0794 66.6819 19.2811 67.7539 19.4825C67.8062 19.4977 67.8618 19.498 67.9142 19.4832C67.9667 19.4684 68.0139 19.4391 68.0505 19.3988C68.087 19.3584 68.1115 19.3086 68.121 19.255C68.1305 19.2015 68.1247 19.1463 68.1043 19.0959C68.0823 19.0141 68.0149 19.0074 67.9534 18.9959C66.8033 18.7806 65.6531 18.5662 64.5028 18.3525C64.4121 18.3356 64.3258 18.3211 64.3016 18.4419Z" fill="#213170"/>
<path d="M67.32 10.0512C67.1395 9.99938 67.1287 10.1912 67.0445 10.2776C66.9489 10.3756 66.9948 10.4497 67.0977 10.5193C67.6537 10.8955 68.2068 11.2759 68.7608 11.6551C69.154 11.9242 69.5485 12.1914 69.9391 12.464C70.0713 12.5562 70.1698 12.5853 70.2726 12.4168C70.3628 12.2689 70.4381 12.1714 70.2357 12.0358C69.2942 11.405 68.3634 10.7583 67.4286 10.1176C67.3989 10.0973 67.3671 10.0799 67.32 10.0512Z" fill="#213170"/>
<path d="M61.9649 16.6538C62.1028 16.7135 62.2554 16.7309 62.4032 16.7038C62.551 16.6766 62.6874 16.6062 62.7949 16.5014C62.9024 16.3966 62.9762 16.2622 63.0069 16.1154C63.0376 15.9686 63.0238 15.8159 62.9673 15.677C62.9107 15.538 62.8139 15.419 62.6893 15.3351C62.5647 15.2513 62.4179 15.2063 62.2676 15.2061C62.1173 15.2058 61.9704 15.2502 61.8454 15.3336C61.7205 15.417 61.6233 15.5356 61.5663 15.6744C61.4952 15.8576 61.4969 16.061 61.571 16.243C61.6451 16.425 61.786 16.5719 61.9649 16.6538Z" fill="#213170"/>
<path d="M72.6083 14.0087C72.6775 13.8248 72.6736 13.6214 72.5975 13.4401C72.5214 13.2589 72.3787 13.1135 72.1988 13.0338C72.1059 12.9946 72.0062 12.9743 71.9054 12.9741C71.8047 12.9739 71.7049 12.9938 71.6119 13.0326C71.5189 13.0715 71.4347 13.1284 71.364 13.2002C71.2934 13.2719 71.2379 13.357 71.2007 13.4505C71.1635 13.544 71.1453 13.6439 71.1474 13.7445C71.1494 13.845 71.1715 13.9442 71.2124 14.0361C71.2534 14.128 71.3123 14.2108 71.3857 14.2797C71.4592 14.3485 71.5457 14.4021 71.6401 14.4371C71.8258 14.5024 72.0295 14.4944 72.2094 14.4148C72.3894 14.3352 72.5321 14.1899 72.6083 14.0087Z" fill="#213170"/>
<path d="M64.1377 26.0183C64.2129 25.8719 64.0866 25.8261 64.0038 25.7693C63.3379 25.3121 62.6706 24.857 62.002 24.4038C61.8649 24.3104 61.7208 24.2254 61.593 24.1208C61.4296 23.987 61.354 24.091 61.2699 24.2126C61.1861 24.3339 61.123 24.4329 61.296 24.5483C61.95 24.9843 62.5964 25.4316 63.2456 25.8748C63.3826 25.9684 63.5189 26.0627 63.656 26.1561C63.915 26.3325 64.0156 26.3036 64.1377 26.0183Z" fill="#213170"/>
<path d="M73.1849 5.18597C73.3005 4.89298 73.2577 4.81023 72.9466 4.75135C72.1033 4.59172 71.2584 4.43983 70.4168 4.27177C70.2168 4.23183 70.1503 4.29434 70.1155 4.48148C70.0808 4.66793 70.1194 4.75439 70.3198 4.78985C71.1932 4.94443 72.0641 5.11324 72.9366 5.27364C73.0283 5.29051 73.1435 5.34259 73.1849 5.18597Z" fill="#213170"/>
<path d="M62.8049 13.1073C62.7208 13.0691 62.6296 13.0489 62.5372 13.0478C62.4449 13.0467 62.3532 13.0647 62.2682 13.1008C62.1832 13.1369 62.1066 13.1902 62.0434 13.2574C61.9801 13.3245 61.9315 13.4041 61.9007 13.4909C61.8326 13.66 61.8332 13.849 61.9025 14.0176C61.9718 14.1862 62.1043 14.3213 62.2718 14.394C62.4455 14.4603 62.6381 14.458 62.8102 14.3876C62.9823 14.3172 63.121 14.184 63.1981 14.0151C63.2321 13.9298 63.249 13.8385 63.2476 13.7467C63.2463 13.6548 63.2268 13.5642 63.1903 13.4798C63.1538 13.3955 63.1009 13.3192 63.0348 13.2552C62.9687 13.1913 62.8905 13.141 62.8049 13.1073Z" fill="#213170"/>
<path d="M71.369 16.5842C71.4532 16.622 71.5443 16.642 71.6367 16.6428C71.729 16.6437 71.8206 16.6254 71.9055 16.5891C71.9903 16.5528 72.0667 16.4993 72.1298 16.432C72.1929 16.3648 72.2413 16.2851 72.2719 16.1982C72.3397 16.0291 72.3387 15.8402 72.2691 15.6718C72.1995 15.5033 72.0668 15.3686 71.8992 15.2962C71.7255 15.2304 71.5332 15.2332 71.3614 15.3039C71.1897 15.3747 71.0515 15.5082 70.975 15.6771C70.9402 15.7624 70.9227 15.8537 70.9237 15.9457C70.9247 16.0378 70.9442 16.1287 70.9809 16.2132C71.0175 16.2977 71.0708 16.374 71.1374 16.4377C71.2041 16.5014 71.2828 16.5512 71.369 16.5842Z" fill="#213170"/>
<path d="M63.9911 11.9189C64.0251 11.8413 64.0431 11.7578 64.0443 11.6731C64.0454 11.5885 64.0296 11.5045 63.9978 11.426C63.9659 11.3475 63.9187 11.2762 63.8589 11.2162C63.799 11.1561 63.7278 11.1086 63.6493 11.0764C63.4908 11.0133 63.3137 11.015 63.1564 11.081C62.9991 11.147 62.8741 11.2721 62.8085 11.4293C62.7429 11.5864 62.7419 11.763 62.8057 11.9209C62.8695 12.0788 62.9931 12.2053 63.1496 12.2731C63.228 12.3062 63.3123 12.3233 63.3975 12.3234C63.4826 12.3234 63.567 12.3065 63.6454 12.2734C63.7239 12.2404 63.7949 12.192 63.8543 12.1311C63.9137 12.0702 63.9602 11.9981 63.9911 11.9189Z" fill="#213170"/>
<path d="M70.1795 17.7763C70.1458 17.8541 70.1281 17.9378 70.1275 18.0225C70.1268 18.1072 70.1431 18.1911 70.1756 18.2694C70.208 18.3477 70.2558 18.4187 70.3162 18.4782C70.3766 18.5378 70.4484 18.5846 70.5273 18.616C70.6863 18.6782 70.8636 18.6754 71.0206 18.6082C71.1776 18.541 71.3018 18.4148 71.3662 18.2569C71.4306 18.0991 71.4301 17.9223 71.3647 17.7648C71.2994 17.6073 71.1745 17.4819 71.017 17.4156C70.9385 17.3828 70.8541 17.3662 70.7689 17.3667C70.6838 17.3672 70.5996 17.3848 70.5215 17.4185C70.4433 17.4522 70.3727 17.5012 70.314 17.5627C70.2552 17.6241 70.2095 17.6968 70.1795 17.7763Z" fill="#213170"/>
<path d="M69.183 20.3198C69.2544 20.3503 69.3313 20.3659 69.409 20.3656C69.4867 20.3652 69.5635 20.349 69.6347 20.318C69.7058 20.2869 69.7699 20.2416 69.8228 20.1848C69.8757 20.1281 69.9164 20.0612 69.9423 19.9881C69.9957 19.8418 69.9905 19.6807 69.9279 19.5381C69.8652 19.3955 69.7499 19.2825 69.6059 19.2225C69.4618 19.1722 69.3041 19.177 69.1634 19.2362C69.0228 19.2953 68.9091 19.4045 68.8447 19.5426C68.8131 19.6155 68.7969 19.694 68.797 19.7734C68.7971 19.8528 68.8135 19.9314 68.8452 20.0042C68.8769 20.077 68.9232 20.1426 68.9813 20.1969C69.0394 20.2512 69.1081 20.293 69.183 20.3198Z" fill="#213170"/>
<path d="M64.9969 9.37418C64.9259 9.34257 64.8492 9.32582 64.7715 9.32498C64.6938 9.32415 64.6168 9.33923 64.5452 9.3693C64.4736 9.39937 64.4089 9.44379 64.3552 9.49981C64.3015 9.55583 64.2599 9.62224 64.233 9.69495C64.1775 9.84044 64.1804 10.0017 64.2409 10.1451C64.3015 10.2886 64.4151 10.4033 64.5582 10.4654C64.7016 10.5176 64.8594 10.5149 65.0009 10.4578C65.1424 10.4006 65.2576 10.2931 65.3242 10.1561C65.3568 10.0836 65.3742 10.0053 65.3752 9.92586C65.3763 9.84645 65.361 9.76768 65.3303 9.6944C65.2996 9.62112 65.2542 9.5549 65.1969 9.49982C65.1395 9.44474 65.0714 9.40198 64.9969 9.37418Z" fill="#213170"/>
<path d="M67.0647 20.8861C67.04 20.9526 67.0287 21.0234 67.0314 21.0943C67.0341 21.1652 67.0508 21.2349 67.0805 21.2993C67.1103 21.3638 67.1524 21.4218 67.2046 21.47C67.2568 21.5182 67.318 21.5557 67.3847 21.5803C67.4514 21.605 67.5224 21.6163 67.5934 21.6135C67.6645 21.6108 67.7344 21.5942 67.799 21.5645C67.8637 21.5349 67.9218 21.4928 67.9701 21.4408C68.0185 21.3887 68.0561 21.3277 68.0808 21.2611C68.1261 21.1265 68.118 20.9796 68.0582 20.8507C67.9985 20.7218 67.8915 20.6206 67.7593 20.5678C67.6247 20.5205 67.477 20.5272 67.3474 20.5867C67.2177 20.6461 67.1164 20.7535 67.0647 20.8861Z" fill="#213170"/>
<path d="M67.103 8.81684C67.1428 8.7175 67.1523 8.60858 67.13 8.5039C67.1077 8.39923 67.0548 8.30349 66.978 8.22883C66.9011 8.15418 66.8038 8.10396 66.6983 8.08454C66.5928 8.06512 66.4839 8.07737 66.3854 8.11975C66.2868 8.16213 66.2032 8.23272 66.1449 8.32258C66.0867 8.41244 66.0565 8.51753 66.0582 8.62452C66.0599 8.73151 66.0934 8.8356 66.1544 8.92358C66.2155 9.01157 66.3014 9.0795 66.4012 9.11875C66.5346 9.169 66.6823 9.1656 66.8132 9.10927C66.9442 9.05295 67.0481 8.9481 67.103 8.81684Z" fill="#213170"/>
<path d="M63.4122 22.25C63.4366 22.1996 63.4502 22.1445 63.4518 22.0885C63.4535 22.0325 63.4432 21.9768 63.4218 21.925C63.4003 21.8732 63.3681 21.8265 63.3273 21.788C63.2865 21.7494 63.2379 21.72 63.1849 21.7015C63.1343 21.6774 63.0792 21.6641 63.0232 21.6623C62.9672 21.6605 62.9114 21.6703 62.8593 21.6911C62.8072 21.7118 62.7601 21.7431 62.7207 21.7829C62.6813 21.8227 62.6506 21.8702 62.6305 21.9224C62.6087 21.9736 62.5972 22.0287 62.5967 22.0843C62.5962 22.14 62.6068 22.1953 62.6278 22.2469C62.6487 22.2985 62.6797 22.3454 62.719 22.3851C62.7582 22.4247 62.8049 22.4562 62.8564 22.4778C62.9078 22.4994 62.9631 22.5106 63.0189 22.5108C63.0747 22.511 63.1301 22.5003 63.1817 22.4791C63.2334 22.4579 63.2803 22.4268 63.3198 22.3875C63.3594 22.3482 63.3908 22.3015 63.4122 22.25Z" fill="#213170"/>
<path d="M70.7612 7.43715C70.7363 7.48739 70.7224 7.5423 70.7203 7.59829C70.7181 7.65429 70.7279 7.71009 70.7489 7.76206C70.7699 7.81403 70.8016 7.861 70.8421 7.89988C70.8825 7.93876 70.9308 7.96868 70.9836 7.98769C71.034 8.01207 71.089 8.02582 71.145 8.02805C71.201 8.03029 71.2568 8.02098 71.3091 8.0007C71.3613 7.98042 71.4088 7.94961 71.4485 7.91019C71.4882 7.87077 71.5194 7.8236 71.54 7.77162C71.5623 7.72057 71.5742 7.66564 71.5752 7.60997C71.5761 7.5543 71.5661 7.49899 71.5455 7.44722C71.525 7.39545 71.4944 7.34823 71.4555 7.30828C71.4166 7.26832 71.3702 7.23642 71.3189 7.2144C71.2677 7.19239 71.2126 7.18068 71.1567 7.17997C71.1009 7.17925 71.0455 7.18954 70.9937 7.21023C70.9419 7.23093 70.8947 7.26163 70.8548 7.30057C70.8149 7.33951 70.7831 7.38592 70.7612 7.43715Z" fill="#213170"/>
<path d="M61.3525 23.232C61.3886 23.1365 61.3854 23.0307 61.3435 22.9377C61.3016 22.8446 61.2245 22.7719 61.129 22.7354C61.036 22.7029 60.934 22.7082 60.8448 22.75C60.7556 22.7919 60.6865 22.8669 60.6522 22.9591C60.6342 23.0045 60.6256 23.053 60.6267 23.1017C60.6278 23.1505 60.6388 23.1986 60.6588 23.243C60.6789 23.2875 60.7078 23.3275 60.7436 23.3607C60.7795 23.3939 60.8217 23.4195 60.8677 23.4361C60.913 23.4545 60.9614 23.4638 61.0103 23.4634C61.0592 23.4631 61.1075 23.4532 61.1525 23.4342C61.1975 23.4153 61.2384 23.3877 61.2727 23.3529C61.307 23.3182 61.3341 23.2771 61.3525 23.232Z" fill="#213170"/>
<path d="M73.5185 6.73487C73.5369 6.68966 73.546 6.64125 73.5453 6.59248C73.5446 6.54371 73.534 6.49557 73.5144 6.45093C73.4947 6.40628 73.4662 6.36602 73.4307 6.33252C73.3951 6.29903 73.3532 6.27299 73.3074 6.25593C73.2163 6.21809 73.1138 6.21791 73.0226 6.25541C72.9313 6.29291 72.8588 6.36503 72.8208 6.4559C72.7839 6.55099 72.7862 6.6568 72.8272 6.75021C72.8682 6.84362 72.9447 6.91702 73.0398 6.95436C73.1326 6.9876 73.2346 6.98322 73.3242 6.94218C73.4137 6.90114 73.4835 6.8267 73.5185 6.73487Z" fill="#213170"/>
<path d="M67.2383 14.7576C68.2214 15.1644 69.2036 15.5735 70.1887 15.9752C70.3536 16.0424 70.419 16.115 70.3413 16.2979C70.267 16.4729 70.1881 16.523 69.9982 16.4439C69.0194 16.0356 68.0396 15.6296 67.059 15.2257C67.1176 15.0693 67.1784 14.9135 67.2383 14.7576Z" fill="#213170"/>
<path d="M67.7253 13.5238C67.7907 13.3623 67.8551 13.2005 67.9212 13.0393C68.6013 13.4519 69.2817 13.8641 69.9624 14.2759C70.0853 14.3501 70.1458 14.4115 70.0505 14.5627C69.8784 14.8356 69.8894 14.8398 69.5895 14.657C68.9685 14.2787 68.3471 13.9009 67.7253 13.5238Z" fill="#213170"/>
<path d="M66.5581 16.6407C67.3165 16.8264 68.075 17.0119 68.8334 17.1975C69.1353 17.2716 69.1523 17.3077 69.0469 17.6072C69.0175 17.7533 68.9161 17.7488 68.7865 17.7167C67.99 17.5192 67.1931 17.324 66.3955 17.131C66.4481 16.9671 66.5032 16.804 66.5581 16.6407Z" fill="#213170"/>
<path d="M72.3336 3.00424C72.3263 3.0241 72.3183 3.04406 72.3109 3.06393L70.2615 2.56373C70.0464 2.51323 70.1365 2.36395 70.1537 2.23609C70.179 2.04807 70.2864 2.03448 70.4474 2.07453C71.1276 2.24377 71.8093 2.4072 72.4898 2.57499C72.4377 2.71814 72.3862 2.862 72.3336 3.00424Z" fill="#213170"/>
<path d="M65.9569 18.6234C66.6224 18.7473 67.2878 18.8714 67.9532 18.9957C68.0148 19.0072 68.0822 19.0139 68.1041 19.0956C68.1246 19.1461 68.1304 19.2012 68.1208 19.2548C68.1113 19.3083 68.0869 19.3582 68.0503 19.3985C68.0138 19.4389 67.9665 19.4681 67.9141 19.4829C67.8616 19.4977 67.8061 19.4975 67.7537 19.4822C67.1132 19.3619 66.4727 19.2413 65.8323 19.1206C65.8731 18.9547 65.9129 18.7884 65.9569 18.6234Z" fill="#213170"/>
<path d="M68.7608 11.6551C68.6919 11.608 68.623 11.5609 68.554 11.5138C68.6213 11.3524 68.6886 11.191 68.7558 11.0297C69.2475 11.3673 69.7409 11.7027 70.2357 12.0358C70.4381 12.1714 70.3628 12.2689 70.2726 12.4168C70.1699 12.5853 70.0713 12.5563 69.9391 12.464C69.5485 12.1914 69.154 11.9242 68.7608 11.6551Z" fill="#213170"/>
<path d="M62.002 24.4037C62.3178 24.6188 62.6335 24.8341 62.949 25.0496C62.841 25.1839 62.7334 25.3185 62.6285 25.4548C62.1855 25.1509 61.743 24.8462 61.296 24.5481C61.123 24.4328 61.1861 24.3338 61.2699 24.2125C61.354 24.0909 61.4296 23.9869 61.593 24.1206C61.7208 24.2253 61.8649 24.3103 62.002 24.4037Z" fill="#213170"/>
<path d="M71.6802 5.0415C71.2269 4.95661 70.7738 4.87035 70.3196 4.78996C70.1193 4.75451 70.0807 4.66804 70.1153 4.48161C70.1502 4.29446 70.2167 4.23196 70.4167 4.27189C70.8733 4.36305 71.3314 4.44659 71.7892 4.53207C71.7427 4.69954 71.7063 4.86966 71.6802 5.0415Z" fill="#213170"/>
</svg>
