<svg width="25" height="25" viewBox="0 0 25 25" fill="none" xmlns="http://www.w3.org/2000/svg">
<path d="M9.72975 4.14681C10.7806 1.52716 11.306 0.217336 12.1596 0.0358C12.384 -0.0119333 12.616 -0.0119333 12.8404 0.0358C13.694 0.217336 14.2194 1.52716 15.2702 4.14681C15.8678 5.63655 16.1666 6.38142 16.7257 6.88805C16.8825 7.03015 17.0527 7.15672 17.234 7.26596C17.8801 7.65542 18.6868 7.72766 20.3001 7.87215C23.0312 8.11674 24.3967 8.23903 24.8137 9.01762C24.9001 9.17887 24.9588 9.35347 24.9874 9.53413C25.1257 10.4065 24.1218 11.3198 22.1141 13.1464L21.5565 13.6536C20.6179 14.5076 20.1486 14.9346 19.8771 15.4675C19.7142 15.7871 19.6051 16.1314 19.5539 16.4865C19.4686 17.0784 19.606 17.6978 19.8809 18.9367L19.9791 19.3793C20.4721 21.601 20.7185 22.7119 20.4109 23.2579C20.1345 23.7484 19.6254 24.0624 19.0631 24.0892C18.4371 24.1191 17.555 23.4003 15.7908 21.9628C14.6285 21.0157 14.0473 20.5421 13.4022 20.3571C12.8126 20.1881 12.1874 20.1881 11.5978 20.3571C10.9527 20.5421 10.3715 21.0157 9.2092 21.9628C7.44501 23.4003 6.56291 24.1191 5.93689 24.0892C5.37456 24.0624 4.86551 23.7484 4.58915 23.2579C4.28148 22.7119 4.52795 21.601 5.02088 19.3793L5.11909 18.9367C5.39395 17.6978 5.53139 17.0784 5.4461 16.4865C5.39494 16.1314 5.28575 15.7871 5.12291 15.4675C4.85145 14.9346 4.38212 14.5076 3.44347 13.6536L2.88594 13.1464C0.878201 11.3198 -0.125666 10.4065 0.0125814 9.53413C0.0412137 9.35347 0.0999327 9.17887 0.186297 9.01762C0.603296 8.23903 1.96882 8.11674 4.69988 7.87215C6.31319 7.72766 7.11985 7.65542 7.76604 7.26596C7.94728 7.15672 8.11751 7.03015 8.27432 6.88805C8.8334 6.38142 9.13218 5.63655 9.72975 4.14681Z" fill="#DED500"/>
</svg>
