<svg width="65" height="65" viewBox="0 0 65 65" fill="none" xmlns="http://www.w3.org/2000/svg">
<g clip-path="url(#clip0_312_462)">
<rect width="65" height="65" rx="10" fill="white"/>
<path d="M32.5 30.6943C34.9997 30.6943 37.4433 29.953 39.5218 28.5642C41.6002 27.1755 43.2202 25.2015 44.1768 22.8921C45.1334 20.5826 45.3837 18.0414 44.896 15.5897C44.4083 13.138 43.2046 10.8859 41.437 9.11835C39.6694 7.35077 37.4174 6.14704 34.9657 5.65936C32.514 5.17169 29.9727 5.42198 27.6633 6.37859C25.3538 7.3352 23.3799 8.95515 21.9911 11.0336C20.6023 13.1121 19.8611 15.5557 19.8611 18.0554C19.8611 21.4074 21.1927 24.6222 23.5629 26.9924C25.9332 29.3627 29.1479 30.6943 32.5 30.6943ZM32.5 9.02762C34.2855 9.02762 36.0309 9.55709 37.5155 10.5491C39.0001 11.5411 40.1573 12.951 40.8406 14.6006C41.5238 16.2502 41.7026 18.0654 41.3543 19.8166C41.0059 21.5678 40.1461 23.1764 38.8836 24.439C37.621 25.7016 36.0124 26.5614 34.2612 26.9097C32.51 27.258 30.6948 27.0793 29.0452 26.396C27.3956 25.7127 25.9856 24.5556 24.9937 23.071C24.0017 21.5864 23.4722 19.8409 23.4722 18.0554C23.4722 15.6611 24.4233 13.3648 26.1164 11.6718C27.8094 9.97876 30.1057 9.02762 32.5 9.02762Z" fill="#213170"/>
<path d="M55.0153 44.0013C52.1198 40.9409 48.6305 38.5032 44.7608 36.8372C40.891 35.1713 36.7222 34.312 32.5091 34.312C28.296 34.312 24.1271 35.1713 20.2574 36.8372C16.3877 38.5032 12.8984 40.9409 10.0028 44.0013C9.37507 44.6718 9.02641 45.5564 9.02784 46.4749V55.9721C9.02784 56.9299 9.40829 57.8484 10.0855 58.5256C10.7627 59.2028 11.6812 59.5833 12.6389 59.5833H52.3612C53.3189 59.5833 54.2374 59.2028 54.9146 58.5256C55.5918 57.8484 55.9723 56.9299 55.9723 55.9721V46.4749C55.9786 45.5589 55.6365 44.6746 55.0153 44.0013ZM52.3612 55.9721H12.6389V46.4569C15.1978 43.7624 18.2782 41.6168 21.6926 40.1506C25.1071 38.6844 28.7841 37.9283 32.5001 37.9283C36.216 37.9283 39.893 38.6844 43.3075 40.1506C46.7219 41.6168 49.8023 43.7624 52.3612 46.4569V55.9721Z" fill="#213170"/>
</g>
<defs>
<clipPath id="clip0_312_462">
<rect width="65" height="65" rx="10" fill="white"/>
</clipPath>
</defs>
</svg>
