<svg width="30" height="30" viewBox="0 0 30 30" fill="none" xmlns="http://www.w3.org/2000/svg">
<g filter="url(#filter0_b_2007_842)">
<rect width="30" height="30" rx="15" fill="#CAEFFF" fill-opacity="0.2"/>
<rect x="0.5" y="0.5" width="29" height="29" rx="14.5" stroke="#213170"/>
</g>
<path d="M21.3776 14.7861L20.5237 13.9325L17.1522 10.562L21.3776 14.7861ZM21.3776 14.7861H20.1702M21.3776 14.7861H20.1702M20.1702 14.7861H7.53568C7.52621 14.7861 7.51714 14.7898 7.51045 14.7965C7.50376 14.8032 7.5 14.8123 7.5 14.8218C7.5 14.8312 7.50376 14.8403 7.51045 14.847C7.51714 14.8537 7.52622 14.8574 7.53568 14.8574H20.1702H21.3776L20.5237 15.711L17.1522 19.0815C17.1454 19.0883 17.1416 19.0976 17.1416 19.1072C17.1416 19.1168 17.1454 19.1261 17.1522 19.1329C17.159 19.1397 17.1683 19.1436 17.1779 19.1436C17.1827 19.1436 17.1874 19.1426 17.1918 19.1408C17.1962 19.139 17.2003 19.1363 17.2036 19.1329L21.4891 14.8475L21.4895 14.847C21.4928 14.8437 21.4955 14.8398 21.4973 14.8354C21.4991 14.8311 21.5 14.8265 21.5 14.8218C21.5 14.8171 21.4991 14.8124 21.4973 14.8081L21.9591 14.6164M20.1702 14.7861L21.9591 14.6164M21.9591 14.6164L21.4973 14.8081C21.4955 14.8037 21.4928 14.7998 21.4895 14.7965L21.4891 14.796L17.2036 10.5106C17.1968 10.5038 17.1876 10.5 17.1779 10.5C17.1683 10.5 17.159 10.5038 17.1522 10.5106C17.1454 10.5174 17.1416 10.5267 17.1416 10.5363C17.1416 10.5459 17.1454 10.5552 17.1522 10.562L21.9591 14.6164Z" fill="white" stroke="#213170"/>
<defs>
<filter id="filter0_b_2007_842" x="-50" y="-50" width="130" height="130" filterUnits="userSpaceOnUse" color-interpolation-filters="sRGB">
<feFlood flood-opacity="0" result="BackgroundImageFix"/>
<feGaussianBlur in="BackgroundImageFix" stdDeviation="25"/>
<feComposite in2="SourceAlpha" operator="in" result="effect1_backgroundBlur_2007_842"/>
<feBlend mode="normal" in="SourceGraphic" in2="effect1_backgroundBlur_2007_842" result="shape"/>
</filter>
</defs>
</svg>
