<svg width="31" height="30" viewBox="0 0 31 30" fill="none" xmlns="http://www.w3.org/2000/svg">
<path fill-rule="evenodd" clip-rule="evenodd" d="M30.5 15C30.5 23.2843 23.7843 30 15.5 30C7.21573 30 0.5 23.2843 0.5 15C0.5 6.71573 7.21573 0 15.5 0C23.7843 0 30.5 6.71573 30.5 15ZM6.5 14C6.5 13.3021 6.5 12.6902 6.5132 12.1513L14.5287 16.6044C15.1328 16.9399 15.8672 16.9399 16.4713 16.6044L24.4868 12.1513C24.5 12.6902 24.5 13.3021 24.5 14V16C24.5 18.8284 24.5 20.2426 23.6213 21.1213C22.7426 22 21.3284 22 18.5 22H12.5C9.67157 22 8.25736 22 7.37868 21.1213C6.5 20.2426 6.5 18.8284 6.5 16V14ZM6.98564 10.1258C6.9074 10.0824 6.82584 10.0505 6.74297 10.0297C6.87294 9.55619 7.07245 9.18491 7.37868 8.87868C8.25736 8 9.67157 8 12.5 8H18.5C21.3284 8 22.7426 8 23.6213 8.87868C23.9276 9.18491 24.1271 9.55619 24.257 10.0297C24.1742 10.0505 24.0926 10.0824 24.0144 10.1258L15.5 14.856L6.98564 10.1258Z" fill="#011D3A"/>
</svg>
