<svg width="30" height="30" viewBox="0 0 30 30" fill="none" xmlns="http://www.w3.org/2000/svg">
<g id="VK/white">
<path id="Subtract" fill-rule="evenodd" clip-rule="evenodd" d="M30 15C30 23.2843 23.2843 30 15 30C6.71573 30 0 23.2843 0 15C0 6.71573 6.71573 0 15 0C23.2843 0 30 6.71573 30 15ZM23.8404 9.46648C24.4967 9.46648 24.6449 9.80523 24.4967 10.271C24.2654 11.3385 22.3447 14.1701 21.7498 15.0471C21.6368 15.2137 21.5716 15.3098 21.575 15.3098C21.3421 15.6909 21.2574 15.8603 21.575 16.2837C21.6898 16.4403 21.9332 16.6791 22.2115 16.9521C22.4976 17.2329 22.8206 17.5498 23.0782 17.8504C24.0097 18.909 24.7296 19.7982 24.9201 20.4121C25.0895 21.0261 24.7931 21.3437 24.1579 21.3437H21.9773C21.3994 21.3437 21.1015 21.0118 20.4666 20.3045C20.1944 20.0012 19.8603 19.6289 19.4155 19.1842C18.1241 17.9351 17.5524 17.7657 17.2349 17.7657C16.7903 17.7657 16.6632 17.8716 16.6632 18.5067V20.4757C16.6632 21.0049 16.4939 21.3225 15.0965 21.3225C12.7888 21.3225 10.2271 19.9252 8.42752 17.3211C5.71757 13.5102 4.97656 10.6309 4.97656 10.0593C4.97656 9.74171 5.08242 9.44531 5.71756 9.44531H7.9194C8.46986 9.44531 8.68157 9.6782 8.89329 10.2922C9.97303 13.4044 11.7726 16.1355 12.5136 16.1355C12.7888 16.1355 12.9159 16.0085 12.9159 15.3098V12.0917C12.8636 11.177 12.5452 10.7785 12.3091 10.483C12.1626 10.2997 12.0478 10.156 12.0478 9.95343C12.0478 9.69937 12.2596 9.44531 12.5983 9.44531H16.0281C16.4939 9.44531 16.6632 9.69937 16.6632 10.2498V14.59C16.6632 15.0558 16.8538 15.2251 17.002 15.2251C17.2772 15.2251 17.5101 15.0558 18.0182 14.5476C19.5849 12.7904 20.707 10.0805 20.707 10.0805C20.8552 9.76289 21.1092 9.46648 21.6597 9.46648H23.8404Z" fill="#011D3A"/>
</g>
</svg>
