<svg width="31" height="30" viewBox="0 0 31 30" fill="none" xmlns="http://www.w3.org/2000/svg">
<path fill-rule="evenodd" clip-rule="evenodd" d="M30.5 15C30.5 23.2843 23.7843 30 15.5 30C7.21573 30 0.5 23.2843 0.5 15C0.5 6.71573 7.21573 0 15.5 0C23.7843 0 30.5 6.71573 30.5 15ZM10.5447 13.6259C9.04208 14.282 7.49817 14.9561 6.08641 15.7337L6.08631 15.7338C5.34913 16.2736 6.32899 16.6553 7.24816 17.0134C7.39429 17.0704 7.53889 17.1267 7.67481 17.183C7.78791 17.2177 7.90294 17.2544 8.0195 17.2915C9.04179 17.6172 10.1817 17.9804 11.1742 17.4341C12.8045 16.4975 14.3431 15.4147 15.8805 14.3328C16.3842 13.9783 16.8878 13.6239 17.3944 13.2748C17.4182 13.2596 17.445 13.2423 17.4742 13.2233C17.9058 12.9435 18.8765 12.3143 18.5175 13.1813C17.6684 14.1098 16.759 14.9317 15.8446 15.7581C15.2284 16.3151 14.61 16.874 14.0062 17.469C13.4803 17.8963 12.9343 18.7555 13.5231 19.3538C14.8793 20.3032 16.2567 21.2296 17.6332 22.1554C18.0812 22.4567 18.5291 22.758 18.9761 23.0599C19.7338 23.6648 20.9178 23.1755 21.0844 22.2303C21.1585 21.7954 21.2329 21.3606 21.3072 20.9257C21.7182 18.5228 22.1293 16.1191 22.4925 13.7084C22.5419 13.3303 22.5978 12.9522 22.6538 12.5738C22.7895 11.6569 22.9254 10.7388 22.9678 9.81692C22.8584 8.89696 21.743 9.09924 21.1222 9.3061C17.9314 10.5202 14.7725 11.8243 11.6262 13.1515C11.2697 13.3094 10.9084 13.4671 10.5447 13.6259Z" fill="#011D3A"/>
</svg>
