<svg width="31" height="30" viewBox="0 0 31 30" fill="none" xmlns="http://www.w3.org/2000/svg">
<path fill-rule="evenodd" clip-rule="evenodd" d="M0.5 15C0.5 23.2843 7.21573 30 15.5 30C23.7843 30 30.5 23.2843 30.5 15C30.5 6.71573 23.7843 0 15.5 0C7.21573 0 0.5 6.71573 0.5 15ZM24.9138 14.4259C24.9119 19.3427 20.9122 23.3433 15.9944 23.3453H15.9907C14.4979 23.3448 13.0311 22.9703 11.7283 22.2597L7 23.5L8.26539 18.878C7.48483 17.5253 7.07411 15.9909 7.07478 14.4189C7.07674 9.50106 11.078 5.5 15.9943 5.5C18.3804 5.50103 20.6199 6.42992 22.3039 8.11588C23.9879 9.80176 24.9148 12.0427 24.9138 14.4259Z" fill="#011D3A"/>
<path fill-rule="evenodd" clip-rule="evenodd" d="M9.14163 21.3809L11.9475 20.6449L12.2182 20.8055C13.3564 21.481 14.6612 21.8384 15.9915 21.8389H15.9945C20.0806 21.8389 23.4063 18.5132 23.4079 14.4254C23.4087 12.4445 22.6383 10.5819 21.2386 9.18056C19.8389 7.77925 17.9776 7.00716 15.9974 7.00647C11.9082 7.00647 8.58243 10.3319 8.58081 14.4194C8.58024 15.8202 8.97218 17.1844 9.71429 18.3647L9.89055 18.6452L9.14163 21.3809ZM20.1828 16.3462C20.3383 16.4214 20.4432 16.4721 20.4881 16.5469C20.5438 16.6398 20.5438 17.0861 20.3581 17.6067C20.1723 18.1273 19.282 18.6024 18.8538 18.6664C18.4698 18.7238 17.9839 18.7478 17.45 18.5781C17.1263 18.4754 16.7112 18.3383 16.1795 18.1086C14.0902 17.2065 12.6782 15.1814 12.4114 14.7987C12.3927 14.7719 12.3796 14.7532 12.3723 14.7434L12.3705 14.741C12.2526 14.5836 11.4623 13.5292 11.4623 12.4379C11.4623 11.4113 11.9665 10.8733 12.1987 10.6256C12.2146 10.6086 12.2292 10.593 12.2423 10.5787C12.4466 10.3556 12.688 10.2998 12.8366 10.2998C12.9852 10.2998 13.1339 10.3012 13.2637 10.3077C13.2798 10.3085 13.2964 10.3084 13.3137 10.3083C13.4435 10.3075 13.6055 10.3066 13.7652 10.6903C13.8266 10.8379 13.9166 11.0568 14.0114 11.2877C14.2032 11.7546 14.415 12.2704 14.4523 12.3451C14.5081 12.4566 14.5452 12.5867 14.4709 12.7355C14.4598 12.7579 14.4494 12.7789 14.4396 12.799C14.3838 12.9129 14.3427 12.9967 14.248 13.1073C14.2108 13.1508 14.1723 13.1977 14.1338 13.2445C14.0572 13.3379 13.9805 13.4313 13.9137 13.4978C13.8022 13.6089 13.686 13.7295 13.816 13.9526C13.946 14.1757 14.3933 14.9055 15.0559 15.4965C15.7681 16.1318 16.3871 16.4003 16.7008 16.5364C16.7621 16.5629 16.8117 16.5845 16.8481 16.6027C17.0709 16.7143 17.2009 16.6956 17.3309 16.5469C17.4609 16.3982 17.8881 15.8961 18.0366 15.673C18.1852 15.45 18.3338 15.4871 18.538 15.5615C18.7424 15.6359 19.8381 16.175 20.0609 16.2866C20.1045 16.3084 20.1451 16.328 20.1828 16.3462Z" fill="#011D3A"/>
</svg>
