<svg width="25" height="25" viewBox="0 0 25 25" fill="none" xmlns="http://www.w3.org/2000/svg">
<path d="M21.3388 3.66117C18.9946 1.31696 15.8152 0 12.5 0C9.18479 0 6.00537 1.31696 3.66117 3.66117C1.31696 6.00537 0 9.18479 0 12.5C0 15.8152 1.31696 18.9946 3.66117 21.3388C6.00537 23.683 9.18479 25 12.5 25C15.8152 25 18.9946 23.683 21.3388 21.3388C23.683 18.9946 25 15.8152 25 12.5C25 9.18479 23.683 6.00537 21.3388 3.66117ZM20.0764 20.0755C18.578 21.5738 16.669 22.5941 14.5908 23.0075C12.5125 23.4208 10.3584 23.2086 8.40074 22.3977C6.44309 21.5868 4.76987 20.2136 3.59265 18.4517C2.41543 16.6899 1.7871 14.6185 1.7871 12.4996C1.7871 10.3806 2.41543 8.30923 3.59265 6.54738C4.76987 4.78552 6.44309 3.41232 8.40074 2.6014C10.3584 1.79049 12.5125 1.57829 14.5908 1.99164C16.669 2.40498 18.578 3.42531 20.0764 4.9236C21.0796 5.91388 21.8761 7.09354 22.4197 8.39411C22.9633 9.69468 23.2432 11.0903 23.2432 12.4999C23.2431 13.9095 22.9631 15.305 22.4195 16.6056C21.8758 17.9061 21.0792 19.0857 20.076 20.076L20.0764 20.0755Z" fill="#FF0000"/>
<path d="M16.8297 6.86426L12.4781 11.2158L8.12608 6.86426L6.86365 8.12669L11.2152 12.4783L6.86365 16.8298L8.12608 18.0923L12.4781 13.7407L16.5806 17.8432L17.843 16.5807L13.7405 12.4783L18.0921 8.12669L16.8297 6.86426Z" fill="#FF0000"/>
</svg>
